<?xml version="1.0" standalone="yes"?>
<svg xmlns="http://www.w3.org/2000/svg" width="1130" height="898">
<path style="fill:#57c5db; stroke:none;" d="M0 0L0 898L1130 898L1130 0L0 0z"/>
<path style="fill:#62b3b7; stroke:none;" d="M344 175L345 175C368.17 119.349 433.058 96.0339 488 117.065C498.795 121.197 508.235 128.037 517 135.439C520.628 138.503 525.093 145.822 530.039 146.382C542.231 147.761 555.036 142.453 568 144.159C572.999 144.817 581.18 148.956 585.961 146.88C591.383 144.524 596.397 137.127 601 133.321C610.548 125.426 621.245 119.252 633 115.333C644.28 111.573 656.107 109.423 668 109.129C674.963 108.957 682.185 111.874 689 110L714 120.109L748 145C741.741 134.249 729.75 126.373 719 120.681C689.101 104.847 653.077 102.994 622 117.259C613.283 121.261 604.727 127.088 597.561 133.444C593.865 136.723 589.557 142.551 585 144.472C580.438 146.395 570.093 141.663 565 141.17C548.158 139.54 522.349 150.992 515 129C509.328 128.31 504.084 122.75 499 120.095C489.844 115.314 480.089 112.186 470 110.015C432.043 101.845 391.742 113.126 364.579 141.155C356.3 149.699 345.583 162.842 344 175z"/>
<path style="fill:#8ed3dc; stroke:none;" d="M439 109L439 110L449 110L439 109z"/>
<path style="fill:#57c5db; stroke:none;" d="M453 109L454 110L453 109M455 109L456 110L455 109z"/>
<path style="fill:#8ed3dc; stroke:none;" d="M664 109L664 110L673 110L664 109M427 110L427 111L432 111L427 110z"/>
<path style="fill:#f8fefe; stroke:none;" d="M586 149C596.838 152.932 606.353 159.469 615 167C634.123 153.532 650.936 141.032 676 144.289C748.646 153.73 760.992 257.89 691 282.305C680.959 285.807 671.501 286.017 661 286C652.048 285.986 642.464 284.628 634 281.62C562.612 256.241 565.666 166.184 507 127.696C448.358 89.2238 362.035 115.51 342.428 185C335.476 209.642 337.615 235.22 342.6 260C360.428 348.609 433.602 415.735 522 430.565C629.706 448.634 740.837 375.511 766.116 269C774.552 233.455 778.02 192.23 757.302 160C720.756 103.148 628.291 88.964 586 149z"/>
<path style="fill:#8ed3dc; stroke:none;" d="M456 110L456 111L461 111L456 110M652 110L652 111L658 111L652 110M678 110L678 111L683 111L678 110z"/>
<path style="fill:#57c5db; stroke:none;" d="M688 110L689 111L688 110z"/>
<path style="fill:#8ed3dc; stroke:none;" d="M422 111L422 112L425 112L422 111M464 111L464 112L468 112L464 111M646 111L646 112L650 112L646 111M686 111L686 112L689 112L686 111M417 112L417 113L420 113L417 112M470 112L470 113L473 113L470 112M642 112L642 113L645 113L642 112M691.667 112.333L692.333 112.667L691.667 112.333M413 113L413 114L416 114L413 113M475.667 113.333L476.333 113.667L475.667 113.333M638.667 113.333L639.333 113.667L638.667 113.333M695.667 113.333L696.333 113.667L695.667 113.333M410.667 114.333L411.333 114.667L410.667 114.333M478 114L478 115L481 115L478 114M635.667 114.333L636.333 114.667L635.667 114.333M698 114L698 115L701 115L698 114M407.667 115.333L408.333 115.667L407.667 115.333M482.667 115.333L483.333 115.667L482.667 115.333M632.667 115.333L633.333 115.667L632.667 115.333M702.667 115.333L703.333 115.667L702.667 115.333M404.667 116.333L405.333 116.667L404.667 116.333M484 116L484 117L487 117L484 116M629.667 116.333L630.333 116.667L629.667 116.333M704.667 116.333L705.333 116.667L704.667 116.333z"/>
<path style="fill:#57c5db; stroke:none;" d="M401 117L402 118L401 117z"/>
<path style="fill:#8ed3dc; stroke:none;" d="M402.667 117.333L403.333 117.667L402.667 117.333M487 117L487 118L492 119L492 118L487 117M624 118L624 119L629 118L624 118M706 117L706 118L709 118L706 117M399 118L399 119L402 119L399 118M709.667 118.333L710.333 118.667L709.667 118.333M397.667 119.333L398.333 119.667L397.667 119.333M492.667 119.333L493.333 119.667L492.667 119.333M622.667 119.333L623.333 119.667L622.667 119.333M711.667 119.333L712.333 119.667L711.667 119.333M395.667 120.333L396.333 120.667L395.667 120.333M494.667 120.333L495.333 120.667L494.667 120.333M620.667 120.333L621.333 120.667L620.667 120.333M713 120L713 121L717 122L717 121L713 120M388 124L388 125L395 122L388 124M496.667 121.333L497.333 121.667L496.667 121.333M618.667 121.333L619.333 121.667L618.667 121.333M498.667 122.333L499.333 122.667L498.667 122.333M616.667 122.333L617.333 122.667L616.667 122.333M717.667 122.333L718.333 122.667L717.667 122.333z"/>
<path style="fill:#57c5db; stroke:none;" d="M389 123L390 124L389 123z"/>
<path style="fill:#8ed3dc; stroke:none;" d="M500 123L501 124L500 123M613 125L616 123L613 125M719.667 123.333L720.333 123.667L719.667 123.333M501.667 124.333L502.333 124.667L501.667 124.333M721.667 124.333L722.333 124.667L721.667 124.333M386.667 125.333L387.333 125.667L386.667 125.333M503.667 125.333L504.333 125.667L503.667 125.333M608 127L608 128L613 126L608 127M723 125L724 126L723 125M385 126L386 127L385 126M505 126L506 127L505 126M724.667 126.333L725.333 126.667L724.667 126.333M384 127L385 128L384 127M506.667 127.333L507.333 127.667L506.667 127.333M726 127L727 128L726 127M382 128L383 129L382 128M508 128L509 129L508 128M607 128L608 129L607 128M727.667 128.333L728.333 128.667L727.667 128.333M381 129L382 130L381 129M509 129L510 130L509 129M606 129L607 130L606 129M729 129L730 130L729 129M379 130L380 131L379 130M604 130L605 131L604 130M730 130L731 131L730 130M378 131L379 132L378 131M512 131L513 132L512 131M603 131L604 132L603 131M731.667 131.333L732.333 131.667L731.667 131.333M377 132L378 133L377 132M513 132L514 133L513 132z"/>
<path style="fill:#57c5db; stroke:none;" d="M601 132L602 133L601 132z"/>
<path style="fill:#8ed3dc; stroke:none;" d="M602 132L603 133L602 132M733 132L734 133L733 132M374 135L377 133L374 135M514 133L515 134L514 133M600.667 133.333L601.333 133.667L600.667 133.333M734 133L735 134L734 133M515 134L516 135L515 134M599 134L600 135L599 134M735 134L736 135L735 134M373 135L374 136L373 135M516 135L520 138L516 135M598 135L599 136L598 135M736 135L742 140L736 135z"/>
<path style="fill:#57c5db; stroke:none;" d="M737 135L738 136L737 135z"/>
<path style="fill:#8ed3dc; stroke:none;" d="M372 136L373 137L372 136M597 136L598 137L597 136M371 137L372 138L371 137M596 137L597 138L596 137M370 138L371 139L370 138M520 138L526 145L520 138M595 138L596 139L595 138M369 139L370 140L369 139z"/>
<path style="fill:#57c5db; stroke:none;" d="M593 139L594 140L593 139z"/>
<path style="fill:#8ed3dc; stroke:none;" d="M594 139L595 140L594 139M368 140L369 141L368 140M593 140L594 141L593 140M742 140L747 146L742 140M367 141L368 142L367 141z"/>
<path style="fill:#57c5db; stroke:none;" d="M591 141L590 143L591 141z"/>
<path style="fill:#8ed3dc; stroke:none;" d="M592 141L593 142L592 141M366 142L367 143L366 142M591 142L592 143L591 142M365 143L366 144L365 143M547 143L547 144L563 144L547 143M590 143L591 144L590 143M364 144L365 145L364 144M428 145L428 146L460 146C451.036 141.692 437.556 143.792 428 145M540 144L540 145L545 145L540 144z"/>
<path style="fill:#f4d564; stroke:none;" d="M530 148C533.026 155.985 539.161 162.71 543.55 170C549.963 180.652 555.078 192.038 560.917 203C567.757 215.842 573.882 228.876 582.001 241C590.431 253.589 600.964 264.925 614 272.796C617.443 274.875 624.368 280.131 628.61 277.879C632.737 275.688 634.974 268.053 636.6 264C642.967 248.133 643.959 229.693 640.6 213C631.261 166.581 576.998 128.039 530 148z"/>
<path style="fill:#8ed3dc; stroke:none;" d="M564 144L564 145L571 145L564 144M589 144L590 145L589 144M653 145L653 146L690 148C679.468 141.567 664.603 144.084 653 145M363 145L364 146L363 145z"/>
<path style="fill:#62b3b7; stroke:none;" d="M709 313L676 320.911L626 317L626 318C649.653 329.084 679.94 320.54 704 317C701.16 325.076 692.675 333.797 686 339L687 341C677.635 346.471 670.925 355.677 661.985 361.769C632.309 381.99 597.193 395.977 561 396.871C462.916 399.293 369.611 314.959 374.039 214C374.808 196.467 385.333 184.619 390 169L392 170C419.916 132.072 480.005 143.024 504.515 178.039C508.691 184.005 514.783 190.63 516 198L534.738 232L544 246C530.396 213.496 510.683 169.013 478 152.259C446.863 136.298 403.046 145.642 384.232 176C372.678 194.644 370.94 215.726 373.17 237C386.564 364.795 537.524 439.284 647 373.6C669.375 360.176 699.37 338.4 709 313z"/>
<path style="fill:#8ed3dc; stroke:none;" d="M526 145L527 146L526 145M535 145L535 146L539 146L535 145M571 145L571 146L575 146L571 145M588 145L589 146L588 145z"/>
<path style="fill:#62b3b7; stroke:none;" d="M616 167L616 168C636.208 188.264 647.555 217.32 642.384 246C640.167 258.3 634.134 268.466 630 280C646.685 283.444 663.925 287.914 681 284.116C692.369 281.586 702.902 277.562 712 270.076C719.407 263.981 725.944 256.742 730.11 248C756.295 193.057 706.275 128.945 646 148.029C634.49 151.673 624.652 158.721 616 167z"/>
<path style="fill:#8ed3dc; stroke:none;" d="M362 146L360 150L362 146M424 146L424 147L427 147L424 146z"/>
<path style="fill:#57c5db; stroke:none;" d="M392 170L390 169C383.723 183.246 375.741 194.766 374.17 211C365.626 299.289 443.238 383.293 528 394.711C576.12 401.193 622.989 389.558 662.961 361.769C671.537 355.806 679.027 347.759 687 341L686 339C692.899 335.336 702.368 324.772 704 317C683.614 318.778 666.939 323.686 646 321.155C639.474 320.366 630.684 321.078 626 316C613.037 317.737 597.084 306.769 587 299.573C582.915 296.657 578.208 294.063 577 289L576 288C561.855 284.744 557.999 263.183 547 256L544 246C530.93 234.241 530.536 207.493 516 198C515.354 188.551 505.49 177.225 499.104 170.576C477.182 147.752 443.351 138.692 414 152.745C405.944 156.602 396.072 161.643 392 170z"/>
<path style="fill:#8ed3dc; stroke:none;" d="M461 146L461 147L464 147L461 146M527 146L528 147L527 146M531 146L531 147L534 147L531 146M576 146L576 147L580 147L576 146M587 146L588 147L587 146M649 146L649 147L652 147L649 146z"/>
<path style="fill:#57c5db; stroke:none;" d="M633 277C637.814 282.057 647.296 282.589 654 283.246C674.75 285.281 692.951 281.99 709.999 269.46C748.453 241.195 742.769 179.979 703 155.926C683.394 144.068 660.877 143.913 640 152.062C634.656 154.148 621.911 159.911 620.458 166.174C619.624 169.767 624.15 173.502 626.191 175.961C631.605 182.481 635.803 190.201 639.128 198C649.432 222.17 647.552 254.894 633 277z"/>
<path style="fill:#8ed3dc; stroke:none;" d="M747 146L748 147L747 146z"/>
<path style="fill:#62b3b7; stroke:none;" d="M749 146C752.28 153.798 758.336 160.391 762.194 168C769.642 182.687 773.269 198.595 773.961 215C778.847 330.835 669.123 438.446 554 433.96C504.763 432.041 456.141 416.941 418 384.704C408.273 376.482 398.669 367.749 390.439 358C384.736 351.244 379.787 342.606 373 337C376.329 345.839 383.414 353.112 389.59 360.089C405.302 377.836 422.823 391.408 442.424 404.55C448.724 408.773 456.457 410.674 462 416L465 415C469.325 420.784 481.324 422.719 488 424.885C513.007 432.997 537.903 435.01 564 435C663.077 434.962 744.889 358.18 769.286 266C778.777 230.138 781.348 172.233 749 146z"/>
<path style="fill:#8ed3dc; stroke:none;" d="M421.667 147.333L422.333 147.667L421.667 147.333M465.667 147.333L466.333 147.667L465.667 147.333M528 147L528 148L531 148L528 147M580 147L580 148L583 148L580 147M586 147L587 148L586 147M646.667 147.333L647.333 147.667L646.667 147.333M748 147L749 148L748 147M418.667 148.333L419.333 148.667L418.667 148.333M468 148L468 149L471 149L468 148M583 148L583 149L586 149L583 148M643.667 148.333L644.333 148.667L643.667 148.333M691 148L692 149L691 148M749 148L750 149L749 148M416 149L417 150L416 149M472 149L473 150L472 149M640.667 149.333L641.333 149.667L640.667 149.333M693.667 149.333L694.333 149.667L693.667 149.333M750 149L752 152L750 149z"/>
<path style="fill:#57c5db; stroke:none;" d="M358 150L359 151L358 150z"/>
<path style="fill:#8ed3dc; stroke:none;" d="M359 150L360 151L359 150M413.667 150.333L414.333 150.667L413.667 150.333M474.667 150.333L475.333 150.667L474.667 150.333M638.667 150.333L639.333 150.667L638.667 150.333M696.667 150.333L697.333 150.667L696.667 150.333M358 151L357 154L358 151M411.667 151.333L412.333 151.667L411.667 151.333M476.667 151.333L477.333 151.667L476.667 151.333M636 151L637 152L636 151M698 151L699 152L698 151M409.667 152.333L410.333 152.667L409.667 152.333M478.667 152.333L479.333 152.667L478.667 152.333M634.667 152.333L635.333 152.667L634.667 152.333M700 152L703 154L700 152M752 152L754 155L752 152M407.667 153.333L408.333 153.667L407.667 153.333M480.667 153.333L481.333 153.667L480.667 153.333M632.667 153.333L633.333 153.667L632.667 153.333M356 154L357 155L356 154M405.667 154.333L406.333 154.667L405.667 154.333M482 154L485 156L482 154M629 156L632 154L629 156M703.667 154.333L704.333 154.667L703.667 154.333M355.333 155.667L355.667 156.333L355.333 155.667M404 155L405 156L404 155M705 155L708 157L705 155M754 155L755 156L754 155M400 159L404 157L400 159M485 156L488 158L485 156M626 158L629 156L626 158M755 156L757 159L755 156M354 157L355 158L354 157M708 157L712 160L708 157M353.333 158.667L353.667 159.333L353.333 158.667z"/>
<path style="fill:#57c5db; stroke:none;" d="M401 158L402 159L401 158z"/>
<path style="fill:#8ed3dc; stroke:none;" d="M488 158L492 161L488 158M621 162L626 159L621 162M396 162L400 160L396 162M757.333 159.667L757.667 160.333L757.333 159.667M352 160L353 161L352 160z"/>
<path style="fill:#57c5db; stroke:none;" d="M623 160L624 161L623 160z"/>
<path style="fill:#8ed3dc; stroke:none;" d="M712 160L713 161L712 160z"/>
<path style="fill:#57c5db; stroke:none;" d="M397 161L398 162L397 161z"/>
<path style="fill:#8ed3dc; stroke:none;" d="M492 161L493 162L492 161z"/>
<path style="fill:#57c5db; stroke:none;" d="M622 161L623 162L622 161z"/>
<path style="fill:#8ed3dc; stroke:none;" d="M713 161L715 163L715 161L713 161M758 161L759 162L758 161M351 162L352 163L351 162M395 162L396 163L395 162M493 162L494 163L493 162M620 162L621 163L620 162M350.333 163.667L350.667 164.333L350.333 163.667M394 163L395 164L394 163M494 163L495 164L494 163M619 163L620 164L619 163M715 163L720 168L715 163M759 163L760 164L759 163M393 164L394 165L393 164M495 164L496 165L495 164M618 164L619 165L618 164M760.333 164.667L760.667 165.333L760.333 164.667M349.333 165.667L349.667 166.333L349.333 165.667M392 165L393 166L392 165M496 165L497 166L496 165M617 165L618 166L617 165M391 166L392 167L391 166M497 166L498 167L497 166M616 166L617 167L616 166M761.333 166.667L761.667 167.333L761.333 166.667M348.333 167.667L348.667 168.333L348.333 167.667M390 167L391 168L390 167M498 167L499 168L498 167M389 168L390 169L389 168M499 168L500 169L499 168M616 168L617 169L616 168M720 168L721 169L720 168M762.333 168.667L762.667 169.333L762.333 168.667M347.333 169.667L347.667 170.333L347.333 169.667M388 169L389 170L388 169M500 169L501 170L500 169M617 169L618 170L617 169M721 169L722 170L721 169M501 170L503 174L504 174L501 170M618 170L619 171L618 170M722 170L723 171L722 170M763.333 170.667L763.667 171.333L763.333 170.667M346.333 171.667L346.667 172.333L346.333 171.667M387 171L388 172L387 171z"/>
<path style="fill:#57c5db; stroke:none;" d="M501 171L502 172L501 171z"/>
<path style="fill:#8ed3dc; stroke:none;" d="M619 171L620 172L619 171M723 171L724 172L723 171M386 172L387 173L386 172z"/>
<path style="fill:#57c5db; stroke:none;" d="M502 172L503 173L502 172z"/>
<path style="fill:#8ed3dc; stroke:none;" d="M620 172L624 177L620 172M724.333 172.667L724.667 173.333L724.333 172.667M345 173L345 176L346 176L345 173M385 173L386 174L385 173M764 173L765 177L766 177L764 173M384.333 174.667L384.667 175.333L384.333 174.667M504 174L505 175L504 174M725 174L726 175L725 174M505 175L506 176L505 175M726 175L727 176L726 175z"/>
<path style="fill:#62b3b7; stroke:none;" d="M343 176C325.713 213.176 337.223 265.191 352.719 301C357.245 311.46 362.892 329.867 373 336C356.349 300.336 339.853 269.355 337.09 229C336.293 217.363 337.124 205.448 339.261 194C340.284 188.518 344.136 181.41 343 176z"/>
<path style="fill:#8ed3dc; stroke:none;" d="M344 176L339 198L340 198L344 176M383.333 176.667L383.667 177.333L383.333 176.667M506 176L508 179L506 176z"/>
<path style="fill:#57c5db; stroke:none;" d="M726 176L727 177L726 176z"/>
<path style="fill:#8ed3dc; stroke:none;" d="M624 177L627 181L624 177M727 177L728 178L727 177M766 177L768 186L769 186L766 177z"/>
<path style="fill:#57c5db; stroke:none;" d="M343 178L344 179L343 178z"/>
<path style="fill:#8ed3dc; stroke:none;" d="M382 178L383 179L382 178M728.333 178.667L728.667 179.333L728.333 178.667M381.333 179.667L381.667 180.333L381.333 179.667M508 179L509 180L508 179M509.333 180.667L509.667 181.333L509.333 180.667M729.333 180.667L729.667 181.333L729.333 180.667M380 181L378 187L379 187L380 181M627 181L629 184L627 181M510 182L511 183L510 182M730 182L732 188L733 188L730 182z"/>
<path style="fill:#57c5db; stroke:none;" d="M380 183L381 184L380 183z"/>
<path style="fill:#8ed3dc; stroke:none;" d="M511 184L512 185L511 184M629 184L631 187L629 184z"/>
<path style="fill:#57c5db; stroke:none;" d="M379 185L380 186L379 185z"/>
<path style="fill:#8ed3dc; stroke:none;" d="M512 185L513 186L512 185M769 186L770 194L771 194L769 186M377 187L377 190L378 190L377 187M513 187L514 188L513 187M631.333 187.667L631.667 188.333L631.333 187.667M514.333 188.667L514.667 189.333L514.333 188.667M733 188L736 201L737 201L733 188M632 189L634 192L632 189M376 190L375 196L376 196L376 190M515 190L516 191L515 190z"/>
<path style="fill:#57c5db; stroke:none;" d="M339 192L340 193L339 192z"/>
<path style="fill:#8ed3dc; stroke:none;" d="M516 192L517 193L516 192z"/>
<path style="fill:#57c5db; stroke:none;" d="M376 193L377 194L376 193z"/>
<path style="fill:#8ed3dc; stroke:none;" d="M517.333 193.667L517.667 194.333L517.333 193.667M634.333 193.667L634.667 194.333L634.333 193.667z"/>
<path style="fill:#57c5db; stroke:none;" d="M734 193L735 194L734 193z"/>
<path style="fill:#8ed3dc; stroke:none;" d="M771 194L773 224L774 224C774 214.848 775.025 202.376 771 194M518 195L521 202L522 202L518 195M635.333 195.667L635.667 196.333L635.333 195.667M374 196L374 199L375 199L374 196M636.333 197.667L636.667 198.333L636.333 197.667z"/>
<path style="fill:#57c5db; stroke:none;" d="M735 197L736 198L735 197z"/>
<path style="fill:#8ed3dc; stroke:none;" d="M338 198C337.925 225.337 339.437 249.049 345 276L346 276L338.09 228L338 198z"/>
<path style="fill:#57c5db; stroke:none;" d="M374 200L375 201L374 200M520 200L521 201L520 200z"/>
<path style="fill:#8ed3dc; stroke:none;" d="M637.333 200.667L637.667 201.333L637.333 200.667M373 201L373 204L374 204L373 201M737 201L737 206L738 206L737 201M522.333 202.667L522.667 203.333L522.333 202.667M638 202L638 205L639 205L638 202M523.333 204.667L523.667 205.333L523.333 204.667z"/>
<path style="fill:#57c5db; stroke:none;" d="M337 206L338 207L337 206z"/>
<path style="fill:#8ed3dc; stroke:none;" d="M372 206L372 213L373 213L372 206M524.333 206.667L524.667 207.333L524.333 206.667M639.333 206.667L639.667 207.333L639.333 206.667z"/>
<path style="fill:#57c5db; stroke:none;" d="M737.333 206.667L737.667 207.333L737.333 206.667z"/>
<path style="fill:#8ed3dc; stroke:none;" d="M525.333 208.667L525.667 209.333L525.333 208.667M738 208L738 220L739 220L738 208M640 209L640 213L641 213L640 209M526.333 210.667L526.667 211.333L526.333 210.667M527.333 212.667L527.667 213.333L527.333 212.667M641 213L641 218L642 218L641 213M528.333 214.667L528.667 215.333L528.333 214.667M529.333 216.667L529.667 217.333L529.333 216.667M530.333 218.667L530.667 219.333L530.333 218.667M642 218L642 230L643 230L642 218M531.333 220.667L531.667 221.333L531.333 220.667M532.333 222.667L532.667 223.333L532.333 222.667M533.333 224.667L533.667 225.333L533.333 224.667M772 224L772 238L773 238L772 224M737 225L735 237L736 237L737 225M534.333 226.667L534.667 227.333L534.333 226.667M535.333 228.667L535.667 229.333L535.333 228.667z"/>
<path style="fill:#57c5db; stroke:none;" d="M736 228L737 229L736 228z"/>
<path style="fill:#8ed3dc; stroke:none;" d="M372 229L372 235L373 235L372 229M536.333 230.667L536.667 231.333L536.333 230.667M643 230L640 254L641 254C642.332 247.133 645.757 236.631 643 230M537.333 232.667L537.667 233.333L537.333 232.667M538 234L539 238L540 238L538 234M734 237L734 240L735 240L734 237M540 238L541 239L540 238M771 238L766 271L767 271C768.284 261.463 774.874 247.251 771 238M373 239L373 243L374 243L373 239M541 240L542 241L541 240M733 240L731 247L732 247L733 240M542.333 241.667L542.667 242.333L542.333 241.667M543.333 243.667L543.667 244.333L543.333 243.667M374 244L374 249L375 249L374 244M544 245L546 248L544 245z"/>
<path style="fill:#62b3b7; stroke:none;" d="M543 247L547 256C556.735 265.603 561.984 282.802 575 289L554.671 263L543 247z"/>
<path style="fill:#8ed3dc; stroke:none;" d="M730.333 247.667L730.667 248.333L730.333 247.667M375 249L378 265L379 265L375 249M546 249L547 250L546 249M729.333 249.667L729.667 250.333L729.333 249.667M547.333 250.667L547.667 251.333L547.333 250.667M728 251L729 252L728 251M548.333 252.667L548.667 253.333L548.333 252.667M727.333 252.667L727.667 253.333L727.333 252.667M549 254L550 255L549 254M726 254L727 255L726 254M725 255L726 256L725 255M550 256L551 257L550 256M639.333 256.667L639.667 257.333L639.333 256.667M551.333 257.667L551.667 258.333L551.333 257.667M724 257L725 258L724 257M723 258L724 259L723 258z"/>
<path style="fill:#57c5db; stroke:none;" d="M769 258L770 259L769 258z"/>
<path style="fill:#8ed3dc; stroke:none;" d="M552 259L553 260L552 259M638.333 259.667L638.667 260.333L638.333 259.667M722.333 259.667L722.667 260.333L722.333 259.667M553 260L555 263L553 260M637 261L637 264L638 264L637 261M721 261L722 262L721 261M720 262L721 263L720 262M555 263L557 266L555 263M719 263L720 264L719 263z"/>
<path style="fill:#57c5db; stroke:none;" d="M768 263L769 264L768 263z"/>
<path style="fill:#8ed3dc; stroke:none;" d="M636.333 264.667L636.667 265.333L636.333 264.667M718 264L719 265L718 264M379 265L380 272L381 272L379 265M717 265L718 266L717 265M557 266L559 269L557 266M635 266L635 269L636 269L635 266M716 266L717 267L716 266M715 267L716 268L715 267z"/>
<path style="fill:#57c5db; stroke:none;" d="M767 267L768 268L767 267z"/>
<path style="fill:#8ed3dc; stroke:none;" d="M711 271L715 268L711 271M559 269L560 270L559 269M634.333 269.667L634.667 270.333L634.333 269.667M560.333 270.667L560.667 271.333L560.333 270.667M633 271L634 272L633 271M710 271L711 272L710 271M765 271L765 274L766 274L765 271M381 272L381 275L382 275L381 272M561 272L562 273L561 272M632 272L630 278L631 278L632 272M709 272L710 273L709 272M562 273L563 274L562 273M707 273L708 274L707 273M563 274L564 275L563 274M706 274L707 275L706 274M382 275L382 278L383 278L382 275M704 275L705 276L704 275M764.333 275.667L764.667 276.333L764.333 275.667M346 276L346 279L347 279L346 276M702.667 276.333L703.333 276.667L702.667 276.333M565 277L566 278L565 277M696 279L696 280L702 278L696 279M383.333 278.667L383.667 279.333L383.333 278.667M566 278L567 279L566 278M629.333 278.667L629.667 279.333L629.333 278.667M763 278L763 281L764 281L763 278M567 279L568 280L567 279M347.333 280.667L347.667 281.333L347.333 280.667M568 280L569 281L568 280M630 280L630 281L633 281L630 280M694.667 280.333L695.333 280.667L694.667 280.333M384.333 281.667L384.667 282.333L384.333 281.667M569 281L576 288L569 281M633 281L633 282L652 285L633 281M691 281L691 282L694 282L691 281M762 281L762 284L763 284L762 281M688 282L688 283L691 283L688 282M348.333 283.667L348.667 284.333L348.333 283.667M385.333 283.667L385.667 284.333L385.333 283.667z"/>
<path style="fill:#57c5db; stroke:none;" d="M683 283L684 284L683 283z"/>
<path style="fill:#8ed3dc; stroke:none;" d="M684 283L684 284L688 284L684 283M673 285L673 286L684 285L673 285M652 285L652 286L661 286L652 285M662 285L662 286L672 286L662 285M761.333 285.667L761.667 286.333L761.333 285.667M349.333 286.667L349.667 287.333L349.333 286.667M386 286L387 287L386 286M387.333 288.667L387.667 289.333L387.333 288.667M576 288L577 289L576 288M760 288L761 289L760 288M350.333 289.667L350.667 290.333L350.333 289.667M577 289C582.904 297.312 592.702 303.128 602 307L602 306L577 289M388.333 290.667L388.667 291.333L388.333 290.667z"/>
<path style="fill:#62b3b7; stroke:none;" d="M576 290C582.851 303.491 610.424 315.818 625 317L625 316L576 290z"/>
<path style="fill:#8ed3dc; stroke:none;" d="M351.333 291.667L351.667 292.333L351.333 291.667M759 291L760 292L759 291M389 293L390 294L389 293M758.333 293.667L758.667 294.333L758.333 293.667M352.333 294.667L352.667 295.333L352.333 294.667M390.333 294.667L390.667 295.333L390.333 294.667M353 296L353 299L354 299L353 296M757.333 296.667L757.667 297.333L757.333 296.667M391 297L392 298L391 297M392.333 298.667L392.667 299.333L392.333 298.667M756.333 298.667L756.667 299.333L756.333 298.667M354.333 299.667L354.667 300.333L354.333 299.667M393.333 300.667L393.667 301.333L393.333 300.667M755 300L753 307L754 307L755 300M355.333 301.667L355.667 302.333L355.333 301.667M394.333 302.667L394.667 303.333L394.333 302.667z"/>
<path style="fill:#57c5db; stroke:none;" d="M755 302L756 303L755 302z"/>
<path style="fill:#8ed3dc; stroke:none;" d="M356 303L356 306L357 306L356 303M395.333 304.667L395.667 305.333L395.333 304.667M357.333 306.667L357.667 307.333L357.333 306.667M396 306L398 309L396 306M603 307L604 308L603 307M752.333 307.667L752.667 308.333L752.333 307.667M358.333 308.667L358.667 309.333L358.333 308.667M605 308L606 309L605 308M398.333 309.667L398.667 310.333L398.333 309.667M607 309L608 310L607 309M751.333 309.667L751.667 310.333L751.333 309.667M359.333 310.667L359.667 311.333L359.333 310.667M609.667 310.333L610.333 310.667L609.667 310.333M399 311L400 312L399 311z"/>
<path style="fill:#57c5db; stroke:none;" d="M611 311L612 312L611 311z"/>
<path style="fill:#8ed3dc; stroke:none;" d="M612.667 311.333L613.333 311.667L612.667 311.333M710 311L709 315L710 315L710 311M750.333 311.667L750.667 312.333L750.333 311.667M360.333 312.667L360.667 313.333L360.333 312.667M400 312L402 317L403 317L400 312M614 312L614 313L619 314L619 313L614 312z"/>
<path style="fill:#57c5db; stroke:none;" d="M401 313L402 314L401 313M616 313L617 314L616 313z"/>
<path style="fill:#8ed3dc; stroke:none;" d="M705.667 313.333L706.333 313.667L705.667 313.333M749.333 313.667L749.667 314.333L749.333 313.667M361.333 314.667L361.667 315.333L361.333 314.667M619 314L619 315L623 315L619 314M692 317L692 318L705 315L692 317M623 315L623 316L680 321L656 319.911L623 315M708 315L709 316L708 315M748.333 315.667L748.667 316.333L748.333 315.667M362.333 316.667L362.667 317.333L362.333 316.667z"/>
<path style="fill:#57c5db; stroke:none;" d="M699 316L700 317L699 316z"/>
<path style="fill:#8ed3dc; stroke:none;" d="M707.333 316.667L707.667 317.333L707.333 316.667M403 317L404 318L403 317M747.333 317.667L747.667 318.333L747.333 317.667M363.333 318.667L363.667 319.333L363.333 318.667z"/>
<path style="fill:#57c5db; stroke:none;" d="M635 318L636 319L635 318z"/>
<path style="fill:#8ed3dc; stroke:none;" d="M680 319L680 320L692 319L680 319M706 318L707 319L706 318M404 319L405 320L404 319M705.333 319.667L705.667 320.333L705.333 319.667M746.333 319.667L746.667 320.333L746.333 319.667M364 320L366 323L364 320M405 320L406 321L405 320z"/>
<path style="fill:#57c5db; stroke:none;" d="M650 320L651 321L650 320z"/>
<path style="fill:#8ed3dc; stroke:none;" d="M406.333 321.667L406.667 322.333L406.333 321.667M704 321L705 322L704 321M745.333 321.667L745.667 322.333L745.333 321.667M703 322L702 325L703 322M366.333 323.667L366.667 324.333L366.333 323.667M407 323L408 324L407 323z"/>
<path style="fill:#57c5db; stroke:none;" d="M702 323L703 324L702 323z"/>
<path style="fill:#8ed3dc; stroke:none;" d="M744 323L745 324L744 323M408 324L409 325L408 324M743.333 324.667L743.667 325.333L743.333 324.667M367 325L368 326L367 325M409.333 325.667L409.667 326.333L409.333 325.667M701 325L702 326L701 325M700 326L698 330L700 326M742 326L743 327L742 326M368 327L369 328L368 327M410 327L411 328L410 327M411 328L412 329L411 328z"/>
<path style="fill:#57c5db; stroke:none;" d="M698 328L699 329L698 328z"/>
<path style="fill:#8ed3dc; stroke:none;" d="M741 328L742 329L741 328M369 329L370 330L369 329M412 329L414 332L412 329M740.333 329.667L740.667 330.333L740.333 329.667M370.333 330.667L370.667 331.333L370.333 330.667M697 330L694 335L697 330M739 331L740 332L739 331M371 332L372 333L371 332M414 332L415 333L414 332M738.333 332.667L738.667 333.333L738.333 332.667M372 333L374 336L372 333M415 333L416 334L415 333M416 334L420 339L416 334z"/>
<path style="fill:#57c5db; stroke:none;" d="M417 334L418 335L417 334z"/>
<path style="fill:#8ed3dc; stroke:none;" d="M737 334L734 340L735 340L737 334M693 335L694 336L693 335M374.333 336.667L374.667 337.333L374.333 336.667M692 336L693 337L692 336M691 337L692 338L691 337z"/>
<path style="fill:#57c5db; stroke:none;" d="M736 337L737 338L736 337z"/>
<path style="fill:#8ed3dc; stroke:none;" d="M375 338L376 339L375 338M690 338L691 339L690 338M376 339L378 342L376 339M420 339L421 340L420 339M689 339L690 340L689 339M421 340L422 341L421 340M688 340L689 341L688 340M733 340L731 344L732 344L733 340M422 341L423 342L422 341M687 341L688 342L687 341z"/>
<path style="fill:#57c5db; stroke:none;" d="M733 341L734 342L733 341z"/>
<path style="fill:#8ed3dc; stroke:none;" d="M378 342L380 345L378 342M423 342L424 343L423 342M424 343L425 344L424 343M425 344L426 345L425 344M684 344L685 345L684 344M730 344L729 347L730 347L730 344M380 345L381 346L380 345M426 345L427 346L426 345M683 345L681 348L683 345z"/>
<path style="fill:#57c5db; stroke:none;" d="M730 345L731 346L730 345z"/>
<path style="fill:#8ed3dc; stroke:none;" d="M381 346L383 349L381 346M427 346L428 347L427 346M428 347L429 348L428 347M728 347L729 348L728 347M429 348L430 349L429 348M680 348L681 349L680 348M727 348L728 349L727 348M383 349L384 350L383 349M430 349L431 350L430 349M679 349L678 351L680 351L679 349M726 349L725 352L726 349M384 350L385 351L384 350M431 350L437 355L431 350z"/>
<path style="fill:#57c5db; stroke:none;" d="M432 350L433 351L432 350z"/>
<path style="fill:#8ed3dc; stroke:none;" d="M385 351L386 352L385 351z"/>
<path style="fill:#57c5db; stroke:none;" d="M433 351L434 352L433 351z"/>
<path style="fill:#8ed3dc; stroke:none;" d="M677 351L678 352L677 351M386.333 352.667L386.667 353.333L386.333 352.667M676 352L677 353L676 352M724 352L725 353L724 352M675 353L676 354L675 353M723 353L724 354L723 353M387 354L388 355L387 354M672 356L675 354L672 356M722 354L721 357L722 354M388 355L389 356L388 355M437 355L438 356L437 355M389 356L390 357L389 356M438 356L439 357L438 356M671 356L672 357L671 356M390 357L392 360L390 357M439 357L440 358L439 357z"/>
<path style="fill:#57c5db; stroke:none;" d="M440 357L441 358L440 357z"/>
<path style="fill:#8ed3dc; stroke:none;" d="M670 357L671 358L670 357M720 357L721 358L720 357M669 358L670 359L669 358M719 358L720 359L719 358M442 359L443 360L442 359z"/>
<path style="fill:#57c5db; stroke:none;" d="M667 359L668 360L667 359z"/>
<path style="fill:#8ed3dc; stroke:none;" d="M668 359L669 360L668 359M718 359L719 360L718 359M392 360L394 362L394 360L392 360M443 360L444 361L443 360M666.667 360.333L667.333 360.667L666.667 360.333M717 360L718 361L717 360M444 361L445 362L444 361z"/>
<path style="fill:#57c5db; stroke:none;" d="M445 361L446 362L445 361z"/>
<path style="fill:#8ed3dc; stroke:none;" d="M665 361L666 362L665 361M716 361L717 362L716 361M394 362L395 363L394 362M446 362L447 363L446 362M664 362L665 363L664 362M715 362L716 363L715 362M395 363L396 364L395 363M447 363L448 364L447 363M662.667 363.333L663.333 363.667L662.667 363.333M714 363L702 376C706.539 373.883 714.115 368.416 714 363M396 364L397 365L396 364M448 364L451 366L448 364M661 364L662 365L661 364M397 365L398 366L397 365M658 367L661 365L658 367M398 366L399 367L398 366M451 366L454 368L451 366M399 367L400 368L399 367M656.667 367.333L657.333 367.667L656.667 367.333M400 368L400 370L402 370L400 368M454 368L457 370L454 368M655 368L656 369L655 368M652 371L655 369L652 371M402 370L403 371L402 370M457 370L460 372L457 370M403 371L404 372L403 371M647 373L647 374L652 372L647 373M404 372L405 373L404 372M460.667 372.333L461.333 372.667L460.667 372.333M405 373L406 374L405 373M462.667 373.333L463.333 373.667L462.667 373.333M406 374L407 375L406 374M464 374L467 376L464 374M645.667 374.333L646.333 374.667L645.667 374.333M407 375L408 376L407 375M642 377L645 375L642 377M408 376L409 377L408 376M467.667 376.333L468.333 376.667L467.667 376.333M701 376L702 377L701 376M409 377L410 378L409 377M469.667 377.333L470.333 377.667L469.667 377.333M640 377L641 378L640 377M700 377L701 378L700 377M410.667 378.333L411.333 378.667L410.667 378.333M471.667 378.333L472.333 378.667L471.667 378.333M638 378L639 379L638 378M699 378L700 379L699 378M412 379L413 380L412 379M473.667 379.333L474.333 379.667L473.667 379.333M636 379L637 380L636 379M698 379L699 380L698 379M413 380L414 381L413 380M475.667 380.333L476.333 380.667L475.667 380.333M634 380L635 381L634 380M697 380L698 381L697 380M414 381L415 382L414 381M477.667 381.333L478.333 381.667L477.667 381.333M632 381L633 382L632 381M693 384L697 381L693 384M415 382L416 383L415 382M479.667 382.333L480.333 382.667L479.667 382.333M629.667 382.333L630.333 382.667L629.667 382.333M416 383L420 386L416 383M481 383L481 384L486 385L486 384L481 383M627.667 383.333L628.333 383.667L627.667 383.333M622 385L622 386L627 385L622 385M692 384L693 385L692 384M486 385L486 386L491 387L491 386L486 385M691 385L692 386L691 385M420 386L421 387L420 386M617 387L617 388L622 387L617 387M688 388L691 386L688 388M421 387L422 388L421 387M491 387L491 388L494 388L491 387M422.667 388.333L423.333 388.667L422.667 388.333M494 388L494 389L500 390L500 389L494 388M614 388L614 389L617 389L614 388M687 388L688 389L687 388M424 389L425 390L424 389M608 390L608 391L614 390L608 390M684 391L687 389L684 391M425 390L426 391L425 390M500 390L500 391L503 391L500 390z"/>
<path style="fill:#57c5db; stroke:none;" d="M606.667 390.333L607.333 390.667L606.667 390.333z"/>
<path style="fill:#8ed3dc; stroke:none;" d="M426.667 391.333L427.333 391.667L426.667 391.333M503 391L503 392L506 392L503 391M604 391L604 392L607 392L604 391M683 391L684 392L683 391M428 392L429 393L428 392M507.667 392.333L508.333 392.667L507.667 392.333M601 392L601 393L604 393L601 392M680 394L683 392L680 394M429 393L432 395L429 393M511 393L511 394L514 394L511 393z"/>
<path style="fill:#57c5db; stroke:none;" d="M595.667 393.333L596.333 393.667L595.667 393.333z"/>
<path style="fill:#8ed3dc; stroke:none;" d="M597 393L597 394L600 394L597 393M515 394L515 395L518 395L515 394M593 394L593 395L596 395L593 394M679 394L680 395L679 394M432 395L433 396L432 395M520 395L520 396L523 396L520 395M587 395L587 396L590 396L587 395M677.667 395.333L678.333 395.667L677.667 395.333M433.667 396.333L434.333 396.667L433.667 396.333M526 396L526 397L529 397L526 396M581 396L581 397L584 397L581 396M676 396L677 397L676 396M435 397L436 398L435 397M533 397L533 398L538 398L533 397M572 397L572 398L578 398L572 397M674.667 397.333L675.333 397.667L674.667 397.333M436.667 398.333L437.333 398.667L436.667 398.333M544 398L544 399L567 399L544 398M673 398L674 399L673 398M438 399L439 400L438 399M671 399L672 400L671 399M440 400L441 401L440 400M668 402L671 401L668 402M441.667 401.333L442.333 401.667L441.667 401.333z"/>
<path style="fill:#57c5db; stroke:none;" d="M669 401L670 402L669 401z"/>
<path style="fill:#8ed3dc; stroke:none;" d="M443 402L446 404L443 402M666.667 402.333L667.333 402.667L666.667 402.333M661 405L661 406L666 404L661 405M446.667 404.333L447.333 404.667L446.667 404.333M448 405L448 406L455 409L455 408L448 405M659.667 406.333L660.333 406.667L659.667 406.333M653 409L653 410L659 408L653 409z"/>
<path style="fill:#57c5db; stroke:none;" d="M657 408L658 409L657 408z"/>
<path style="fill:#8ed3dc; stroke:none;" d="M455.667 409.333L456.333 409.667L455.667 409.333M457.667 410.333L458.333 410.667L457.667 410.333M651.667 410.333L652.333 410.667L651.667 410.333M459.667 411.333L460.333 411.667L459.667 411.333M649.667 411.333L650.333 411.667L649.667 411.333M461.667 412.333L462.333 412.667L461.667 412.333M647.667 412.333L648.333 412.667L647.667 412.333M464 413L465 414L464 413M645.667 413.333L646.333 413.667L645.667 413.333M466.667 414.333L467.333 414.667L466.667 414.333M643.667 414.333L644.333 414.667L643.667 414.333M468.667 415.333L469.333 415.667L468.667 415.333M641 415L642 416L641 415M470.667 416.333L471.333 416.667L470.667 416.333M638.667 416.333L639.333 416.667L638.667 416.333M473.667 417.333L474.333 417.667L473.667 417.333M636.667 417.333L637.333 417.667L636.667 417.333M475.667 418.333L476.333 418.667L475.667 418.333M633.667 418.333L634.333 418.667L633.667 418.333M478.667 419.333L479.333 419.667L478.667 419.333M628 420L628 421L633 420L628 420M480 420L480 421L483 421L480 420M483 421L483 422L492 424L492 423L483 421M625 421L625 422L628 422L625 421z"/>
<path style="fill:#57c5db; stroke:none;" d="M485 422L486 423L485 422z"/>
<path style="fill:#8ed3dc; stroke:none;" d="M603 427L603 428L625 423L603 427z"/>
<path style="fill:#57c5db; stroke:none;" d="M488 423L489 424L488 423z"/>
<path style="fill:#8ed3dc; stroke:none;" d="M492 424L492 425L496 425L492 424M496 425L496 426L503 427L496 425M503 427L503 428L512 429L503 427M599 428L599 429L603 429L599 428M512 429L512 430L517 430L512 429M593 429L593 430L598 430L593 429M518 430L518 431L522 431L518 430M589 430L589 431L592 431L589 430z"/>
<path style="fill:#57c5db; stroke:none;" d="M592 430L593 431L592 430z"/>
<path style="fill:#8ed3dc; stroke:none;" d="M525 431L525 432L529 432L525 431M582 431L582 432L586 432L582 431M533 432L533 433L539 433L533 432M571 432L571 433L577 433L571 432z"/>
<path style="fill:#57c5db; stroke:none;" d="M577 432L578 433L577 432z"/>
<path style="fill:#8ed3dc; stroke:none;" d="M549 433L549 434L562 434L549 433z"/>
<path style="fill:#62b3b7; stroke:none;" d="M618 503L618 504C629.337 506.793 645.634 507.183 647.631 522C650.352 542.186 633.532 562.174 633.015 582C631.902 624.602 633 667.382 633 710C633 728.613 636.313 750.884 632 769C636.617 763.686 634.531 755.491 634.089 749C633.145 735.125 633.999 720.908 634 707C634.002 680.744 635 654.336 635 628C635 612.534 633.126 595.754 635.022 580.424C637.472 560.623 651.628 540.459 648.811 520C646.903 506.14 629.331 503.488 618 503z"/>
<path style="fill:#8ed3dc; stroke:none;" d="M618 504L618 506L620 506L620 504L618 504z"/>
<path style="fill:#62b3b7; stroke:none;" d="M616 505C614.538 536.984 599.137 573.65 585.194 602C579.395 613.791 568.476 626.322 565.38 639C562.299 651.616 571.663 663.441 585 662.195C589.772 661.75 593.665 658.692 598 657L598 727C598 737.238 595.868 750.326 600.133 759.911C604.907 770.635 621.038 771.945 631 769L631 768C622.309 768 610.941 770.101 604.532 762.812C597.277 754.56 600 740.157 600 730L600 649L599 649C595.051 654.848 591.548 659.584 584 660.442C573.705 661.613 564.254 651.117 566.536 641C569.845 626.33 582.948 611.891 589.139 598C602.526 567.962 611.74 537.279 618 505L616 505z"/>
<path style="fill:#f8fefe; stroke:none;" d="M600 648L600 729C600 739.156 597.314 753.555 604.394 761.906C611.246 769.989 622.541 768 632 768L632 644C632 623.215 630.395 601.71 632.093 581C633.599 562.642 644.297 544.728 646.37 526C647.685 514.13 638.98 509.413 629 507.119C626.37 506.514 622.126 504.833 619.564 506.35C616.863 507.949 616.746 513.268 616.2 516C614.454 524.726 612.587 533.38 610.37 542C604.932 563.15 596.901 584.68 586.702 604C580.835 615.113 569.04 629.597 567.214 642C565.608 652.903 576.384 662.4 586.999 659.2C592.921 657.415 596.147 652.44 600 648z"/>
<path style="fill:#8ed3dc; stroke:none;" d="M621 505L621 506L626 506L621 505M626 506L626 507L630 507L626 506M617 507L617 510L618 510L617 507M630 507L630 508L635 508L630 507M635 508L635 509L638 509L635 508z"/>
<path style="fill:#62b3b7; stroke:none;" d="M674 522L674 523L744 509.46L814 523C814 562.548 821.053 607.201 779 628.241C773.028 631.229 766.633 634.02 760 635L760 644L838 644L838 642C819.027 642.432 799.985 642 781 642C777.478 642 764.905 643.914 763.346 639.74C761.874 635.801 775.391 632.175 777.996 630.834C792.133 623.558 806.475 613.292 811.482 597.286C816.938 579.846 815 561.088 815 543C815 538.185 817.127 527.354 814.168 523.434C809.367 517.073 788.541 516.725 781 515.193C768.741 512.702 755.559 508.078 743 508.079C733.955 508.079 724.8 511.44 716 513.2C702.13 515.974 687.423 517.573 674 522z"/>
<path style="fill:#8ed3dc; stroke:none;" d="M638.667 509.333L639.333 509.667L638.667 509.333z"/>
<path style="fill:#57c5db; stroke:none;" d="M741 509L742 510L741 509z"/>
<path style="fill:#8ed3dc; stroke:none;" d="M708 516L708 517L743 510.728L775 516C754.107 504.873 729.557 511.938 708 516M640 510L644 514L640 510z"/>
<path style="fill:#57c5db; stroke:none;" d="M641 510L642 511L641 510z"/>
<path style="fill:#f8fefe; stroke:none;" d="M760 645L760 634C782.914 630.912 804.931 613.529 811.254 591C814.217 580.441 813 568.859 813 558C813 551.023 816.661 527.298 809.852 523.653C802.489 519.711 791.161 519.432 783 517.8C770.582 515.317 755.641 510.082 743 510.46C731.224 510.812 718.552 515.089 707 517.4C699.206 518.958 681.456 518.914 675.742 524.738C672.15 528.4 674 538.276 674 543C674 559.904 672.178 577.648 677.205 594C681.803 608.957 694.119 621.096 708 627.869C713.361 630.485 728.357 632.248 727.793 639.985C727.262 647.267 713.099 645 708 645C693.406 645 672.925 641.279 659 645.653C650.817 648.223 647.587 657.134 649.394 665C650.785 671.054 655.996 675.055 662 675.815C677.517 677.778 694.355 676 710 676C714.371 676 722.98 674.398 726.397 677.742C730.25 681.514 728 693.961 728 699C728 722.426 717.289 773.98 754.981 767.852C762.904 766.564 760 751.88 760 746L760 696C760 691.41 758.095 681.112 761.603 677.603C765.112 674.095 775.41 676 780 676L814 676C819.496 676 826.084 676.997 830.985 673.991C836.46 670.632 845.252 648.224 835.772 645.318C828.68 643.144 818.408 645 811 645C794.54 645 776.214 642.686 760 645z"/>
<path style="fill:#57c5db; stroke:none;" d="M750 510L751 511L750 510M642 511L643 512L642 511M731 511L732 512L731 511z"/>
<path style="fill:#62b3b7; stroke:none;" d="M302 545C298.238 533.632 291.463 522.011 307 514.914C322.142 507.998 348.534 513 365 513L501 513C495.784 510.811 488.619 512 483 512L445 512L355 512C340.477 512 324.352 510.018 310 512.213C295.168 514.481 288.677 536.568 302 545z"/>
<path style="fill:#8ed3dc; stroke:none;" d="M616 512L616 515L617 515L616 512z"/>
<path style="fill:#57c5db; stroke:none;" d="M643 512L644 513L643 512M309.667 513.333L310.333 513.667L309.667 513.333M312 513L312 514L320 514L312 513z"/>
<path style="fill:#8ed3dc; stroke:none;" d="M298 523L299 523C309.934 509.307 337.026 515 353 515L502 515C502 525.596 503.452 538.952 492 544.427C479.113 550.589 455.168 546 441 546L353 546C335.401 546 317.615 547.944 301 542L301 543C313.56 550.295 331.857 547 346 547L447 547C460.139 547 482.141 551.191 493.961 545C505.419 538.998 503 524.77 503 514C485.131 510.683 465.155 513 447 513C414.007 513 380.946 512.326 348 513.924C333.221 514.641 306.457 506.844 298 523z"/>
<path style="fill:#57c5db; stroke:none;" d="M336 513L336 514L352 514L336 513M353 513L353 514L356 514L353 513M357 513L358 514L357 513M400.667 513.333L401.333 513.667L400.667 513.333M414.667 513.333L415.333 513.667L414.667 513.333M721 513L722 514L721 513z"/>
<path style="fill:#8ed3dc; stroke:none;" d="M644 514C647.594 527.449 642.797 537.657 641 551L642 551C644.365 540.658 652.463 522.92 644 514z"/>
<path style="fill:#f8fefe; stroke:none;" d="M502 515L422 515L368 515L327 515C320.83 515 312.9 513.698 307.001 515.703C295.915 519.471 293.218 536.243 303.044 542.867C314.007 550.256 336.237 546 349 546L450 546C462.151 546 481.912 549.752 492.999 544.427C503.966 539.16 502 525.057 502 515z"/>
<path style="fill:#62b3b7; stroke:none;" d="M503 515L503 534L504 534L503 515z"/>
<path style="fill:#8ed3dc; stroke:none;" d="M776 516L776 517L779 517L776 516M615 517L615 520L616 520L615 517M704 517L704 518L707 518L704 517M781 517L781 518L784 518L781 517M698 518L698 519L702 519L698 518M786 518L786 519L789 519L786 518M693 519L693 520L696 520L693 519M791 519L791 520L794 520L791 519z"/>
<path style="fill:#57c5db; stroke:none;" d="M647 520L648 521L647 520z"/>
<path style="fill:#8ed3dc; stroke:none;" d="M688 520L688 521L691 521L688 520M796 520L796 521L799 521L796 520M683 521L683 522L686 522L683 521M801 521L801 522L804 522L801 521M614 522L614 525L615 525L614 522M678 522L678 523L682 523L678 522M806 522L806 523L809 523L806 522M674 526L675 526L677 524C674.86 522.882 674.473 523.749 674 526M810 523L810 524C814.23 528.142 813 534.438 813 540L813 580L814 580L814 537C814 532.012 815.672 524.883 810 523z"/>
<path style="fill:#57c5db; stroke:none;" d="M813 523L814 524L813 523z"/>
<path style="fill:#8ed3dc; stroke:none;" d="M297.333 524.667L297.667 525.333L297.333 524.667z"/>
<path style="fill:#62b3b7; stroke:none;" d="M672 524C672 550.225 665.761 585.111 681.09 608C688.924 619.698 700.366 626.773 713 632.421C715.428 633.506 724.936 635.654 724.23 639.482C723.407 643.944 706.447 642.123 703 642.576C684.986 644.941 650.552 633.479 646 659L658 645.573L680 644L727 644L727 635C695.701 628.522 673.797 603.941 673.015 572C672.737 560.656 673.289 549.361 673.015 538C672.903 533.384 674.233 528.15 672 524z"/>
<path style="fill:#57c5db; stroke:none;" d="M613 525L614 526L613 525z"/>
<path style="fill:#8ed3dc; stroke:none;" d="M613 526L613 530L614 530L613 526z"/>
<path style="fill:#57c5db; stroke:none;" d="M647 526L648 527L647 526z"/>
<path style="fill:#8ed3dc; stroke:none;" d="M296 527L296 534L297 534L296 527M673 528L673 544L674 544L673 528M612 530L612 534L613 534L612 530z"/>
<path style="fill:#57c5db; stroke:none;" d="M646 531L647 532L646 531z"/>
<path style="fill:#62b3b7; stroke:none;" d="M502 534L498 543C501.466 540.863 503.535 538.064 502 534z"/>
<path style="fill:#8ed3dc; stroke:none;" d="M611 534L611 538L612 538L611 534M297.333 535.667L297.667 536.333L297.333 535.667M298 538L299 539L298 538M610 538L608 549L609 549L610 538z"/>
<path style="fill:#57c5db; stroke:none;" d="M644 540L645 541L644 540M609 541L610 542L609 541z"/>
<path style="fill:#8ed3dc; stroke:none;" d="M743 542L744 543L743 542z"/>
<path style="fill:#62b3b7; stroke:none;" d="M304 545C310.271 553.348 337.436 549 347 549L458 549C469.741 549 489.517 552.863 498 543C482.353 549.247 464.785 547 448 547L358 547C341.439 547 319.641 550.701 304 545z"/>
<path style="fill:#8ed3dc; stroke:none;" d="M706 579L707 579L708.028 552.303L717 548.75L742 544C734.909 541.232 722.357 546.323 715 547.8C712.273 548.348 708.162 548.484 706.742 551.314C703.37 558.033 706 571.534 706 579z"/>
<path style="fill:#62b3b7; stroke:none;" d="M780 550C767.871 549.035 755.07 543.045 743 543.474C736.78 543.695 730.11 545.978 724 547.2C719.78 548.044 711.891 547.975 708.603 550.938C706.136 553.161 707 558.039 707 561C706.999 570.276 705.136 581.138 711.055 588.985C725.532 608.181 769.5 609.52 778.867 584C782.443 574.255 780 560.295 780 550z"/>
<path style="fill:#8ed3dc; stroke:none;" d="M745 543L745 544L750 544L745 543z"/>
<path style="fill:#62b3b7; stroke:none;" d="M303 544L304 545L303 544z"/>
<path style="fill:#57c5db; stroke:none;" d="M737 544L738 545L737 544M749.667 544.333L750.333 544.667L749.667 544.333z"/>
<path style="fill:#8ed3dc; stroke:none;" d="M751 544L751 545L770 548L751 544z"/>
<path style="fill:#57c5db; stroke:none;" d="M305 545L306 546L305 545M493 545L494 546L493 545M732 545L733 546L732 545M739 545.579C732.046 546.947 714.791 547.361 709.938 552.738C705.999 557.103 708.469 565.858 708.795 571C710.352 595.606 731.801 604.952 755 600.532C772.292 597.238 779 582.956 779 567C779 563.185 779.944 557.666 777.821 554.278C776.069 551.481 771.99 550.53 769 549.759C760.469 547.561 747.627 543.883 739 545.579M754 545L755 546L754 545M307 546L308 547L307 546M490 546L491 547L490 546M642 548L643 549L642 548z"/>
<path style="fill:#8ed3dc; stroke:none;" d="M770 548L770 549L775 549L770 548M607 549L606 556L607 556L607 549M775 549L775 550L780 550L775 549M780 550L780 581L781 581L780 550z"/>
<path style="fill:#57c5db; stroke:none;" d="M641 551L642 552L641 551M606 552L607 553L606 552z"/>
<path style="fill:#8ed3dc; stroke:none;" d="M640.333 552.667L640.667 553.333L640.333 552.667M605 556L605 559L606 559L605 556M639.333 556.667L639.667 557.333L639.333 556.667M604 559L604 562L605 562L604 559M638 559L638 562L639 562L638 559M673 560L674 561L673 560z"/>
<path style="fill:#57c5db; stroke:none;" d="M673 561L673 578L674 578L673 561z"/>
<path style="fill:#8ed3dc; stroke:none;" d="M603 562L603 565L604 565L603 562M637 562L637 565L638 565L637 562M602.333 565.667L602.667 566.333L602.333 565.667M636.333 566.667L636.667 567.333L636.333 566.667M601.333 568.667L601.667 569.333L601.333 568.667M635.333 569.667L635.667 570.333L635.333 569.667M600 571L601 572L600 571M634.333 572.667L634.667 573.333L634.333 572.667M599.333 573.667L599.667 574.333L599.333 573.667M633 574L633 577L634 577L633 574M598.333 576.667L598.667 577.333L598.333 576.667M632 577L632 768L633 768L633 634L633 595L632 577z"/>
<path style="fill:#57c5db; stroke:none;" d="M597 578L598 579L597 578z"/>
<path style="fill:#8ed3dc; stroke:none;" d="M597 579L598 580L597 579M596.333 581.667L596.667 582.333L596.333 581.667M674 582L674 587L675 587L674 582M707.333 582.667L707.667 583.333L707.333 582.667M779.333 582.667L779.667 583.333L779.333 582.667M595 583L594 588L595 588L595 583M708 585L709 586L708 585M778 585L779 586L778 585M812 585L812 588L813 588L812 585M675 587L676 595L677 595L675 587M709 587L710 588L709 587M777 587L778 588L777 587M593.333 588.667L593.667 589.333L593.333 588.667M710 588L711 589L710 588M776.333 588.667L776.667 589.333L776.333 588.667z"/>
<path style="fill:#62b3b7; stroke:none;" d="M530 592L529 592C529 600.555 531.112 612.071 524.775 618.892C518.369 625.788 507.586 625 499 625C478.661 625 458.251 625.598 438 624L438 694C438 703.084 435.527 716.513 439.009 724.996C443.698 736.416 476.838 736.599 485.895 730.262C496.257 723.01 489.002 703.896 491.178 693.424C494.42 677.827 512.163 680 524 680C524 699.908 528.751 726.458 517.451 744C497.474 775.016 434.198 775.908 412.789 746C403.706 733.312 405 717.749 405 703L405 624C386.874 626.291 368.497 624.341 350.344 624.341C328.991 624.341 306.217 626.736 285 624.226C270.562 622.518 263.677 604.29 276.043 595.109C282.665 590.193 291.219 591 299 591L345 591L528 591C522.268 587.366 514.372 589.669 508.001 589.874C495.432 590.28 482.64 590 470 590L315 590C299.421 590 255.984 585.968 269.344 615.714C275.24 628.841 292.424 626 304 626L374 626C380.776 626 394.907 623.325 400.682 627.179C406.26 630.901 403 651.798 403 658C403 684.133 396.567 720.279 409.324 744C421.622 766.867 444.185 767 467 767C483.892 767 498.464 766.919 511.576 754.536C528.198 738.837 529.833 705.603 525.772 684.015C523.538 672.145 497.909 678.275 492.818 685.185C484.042 697.097 496.09 719.021 484.695 728.347C476.992 734.652 445.486 733.847 440.742 724.154C437.666 717.868 440 705.944 440 699L440 652C440 645.317 438.498 636.556 440.318 630.109C442.354 622.896 461.138 626 467 626C489.432 626 531.01 635.198 531 603C530.999 599.211 530.88 595.694 530 592z"/>
<path style="fill:#8ed3dc; stroke:none;" d="M711 589L713 592L711 589M592.333 590.667L592.667 591.333L592.333 590.667z"/>
<path style="fill:#57c5db; stroke:none;" d="M712 590L713 591L712 590z"/>
<path style="fill:#8ed3dc; stroke:none;" d="M775 590L776 591L775 590M811.333 590.667L811.667 591.333L811.333 590.667M284 591L284 592L449 592C474.015 592 504.681 587.21 529 593L513 591L468 591L284 591M774 591L775 592L774 591M280.667 592.333L281.333 592.667L280.667 592.333z"/>
<path style="fill:#f8fefe; stroke:none;" d="M282 592.558C264.992 597.021 268.214 620.031 284 623.481C293.365 625.528 304.436 624 314 624L374 624C380.201 624 401.246 620.734 404.972 626.318C409.057 632.439 406 648.743 406 656C406 689.416 393.696 748.951 435 762.48C443.837 765.375 452.836 765 462 765C472.691 765 483.698 765.924 494 762.477C521.181 753.382 523 728.275 523 704C523 699.195 525.449 684.388 521.397 681.179C514.581 675.781 498.011 681.597 494.005 688.015C487.268 698.813 494.587 713.74 490.258 724.999C488.884 728.572 485.652 731.378 482 732.427C472.652 735.113 446.867 736.009 440.43 727.945C435.377 721.616 437 711.541 437 704L437 648C437 642.738 434.334 627.142 440.148 624.603C445.163 622.414 453.595 624 459 624L504 624C515.415 624 527.297 621.605 528.826 608C529.215 604.53 530.48 595.47 527.397 593.028C524.302 590.577 516.731 592 513 592L474 592L343 592C324.353 592 300.021 587.828 282 592.558z"/>
<path style="fill:#8ed3dc; stroke:none;" d="M591 592L590 597L591 597L591 592M713 592L714 593L713 592M773 592L774 593L773 592z"/>
<path style="fill:#57c5db; stroke:none;" d="M277 593L278 594L277 593z"/>
<path style="fill:#8ed3dc; stroke:none;" d="M278 593L279 594L278 593M714 593L715 594L714 593M772 593L773 594L772 593M810.333 593.667L810.667 594.333L810.333 593.667M276.667 594.333L277.333 594.667L276.667 594.333M715 594L718 596L715 594M771 594L772 595L771 594M275 595L276 596L275 595M677 595L678 600L679 600L677 595M768 597L771 595L768 597M274 596L275 597L274 596M718 596L721 598L718 596M809.333 596.667L809.667 597.333L809.333 596.667z"/>
<path style="fill:#57c5db; stroke:none;" d="M272 597L273 598L272 597z"/>
<path style="fill:#8ed3dc; stroke:none;" d="M273 597L274 598L273 597M589.333 597.667L589.667 598.333L589.333 597.667M756 601L756 602L768 598L756 601M272 598L270 605L271 605L272 598M721 598L721 599L735 603L735 602L721 598M808.333 598.667L808.667 599.333L808.333 598.667z"/>
<path style="fill:#57c5db; stroke:none;" d="M271 599L272 600L271 599z"/>
<path style="fill:#8ed3dc; stroke:none;" d="M588.333 599.667L588.667 600.333L588.333 599.667z"/>
<path style="fill:#57c5db; stroke:none;" d="M725 599L726 600L725 599z"/>
<path style="fill:#8ed3dc; stroke:none;" d="M679.333 600.667L679.667 601.333L679.333 600.667z"/>
<path style="fill:#57c5db; stroke:none;" d="M759 600L760 601L759 600z"/>
<path style="fill:#8ed3dc; stroke:none;" d="M807.333 600.667L807.667 601.333L807.333 600.667M587.333 601.667L587.667 602.333L587.333 601.667M680 602L681 603L680 602z"/>
<path style="fill:#57c5db; stroke:none;" d="M735 602L736 603L735 602z"/>
<path style="fill:#8ed3dc; stroke:none;" d="M752 602L752 603L756 603L752 602M806.333 602.667L806.667 603.333L806.333 602.667M586.333 603.667L586.667 604.333L586.333 603.667M681.333 603.667L681.667 604.333L681.333 603.667M736 603L736 604L752 604L736 603M805 604L804 607L805 604M269 605L271 616L272 616L269 605M585.333 605.667L585.667 606.333L585.333 605.667M682.333 605.667L682.667 606.333L682.333 605.667M584 607L585 608L584 607M683 607L684 608L683 607M803 607L802 610L803 607M684 608L686 611L684 608M583.333 609.667L583.667 610.333L583.333 609.667M528 610L528 613L529 613L528 610M801 610L802 611L801 610M582 611L583 612L582 611M686 611L687 612L686 611M800 611L801 612L800 611M687 612L688 613L687 612M799 612L800 613L799 612M581.333 613.667L581.667 614.333L581.333 613.667M688 613L689 614L688 613M798 613L796 616L798 613z"/>
<path style="fill:#57c5db; stroke:none;" d="M270 614L271 615L270 614z"/>
<path style="fill:#8ed3dc; stroke:none;" d="M527 614L518 622L518 623C522.502 622.089 527.42 619.113 527 614M689 614L690 615L689 614z"/>
<path style="fill:#57c5db; stroke:none;" d="M798 614L799 615L798 614z"/>
<path style="fill:#8ed3dc; stroke:none;" d="M580 615L581 616L580 615M690 615L691 616L690 615M272 616L278 622L272 616M691 616L692 617L691 616M795 616L796 617L795 616z"/>
<path style="fill:#57c5db; stroke:none;" d="M526 617L527 618L526 617z"/>
<path style="fill:#8ed3dc; stroke:none;" d="M579 617L578 620L579 617M692 617L693 618L692 617M794 617L795 618L794 617M693 618L694 619L693 618M793 618L794 619L793 618M694 619L694 620L698 622L694 619M792 619L793 620L792 619M577.333 620.667L577.667 621.333L577.333 620.667M789 622L792 620L789 622z"/>
<path style="fill:#57c5db; stroke:none;" d="M696 621L697 622L696 621z"/>
<path style="fill:#8ed3dc; stroke:none;" d="M278 622L278 623L284 624L284 623L278 622M576 622L574 627L575 627L576 622M698 622L701 624L698 622M788 622L789 623L788 622M515 623L515 624L518 624L515 623z"/>
<path style="fill:#57c5db; stroke:none;" d="M575 623L576 624L575 623z"/>
<path style="fill:#8ed3dc; stroke:none;" d="M786.667 623.333L787.333 623.667L786.667 623.333z"/>
<path style="fill:#57c5db; stroke:none;" d="M285 624L285 625L288 625L285 624z"/>
<path style="fill:#8ed3dc; stroke:none;" d="M290 624L290 625L296 625L290 624M316 624L316 625L328 625L316 624M331 624L331 625L336 625L331 624z"/>
<path style="fill:#57c5db; stroke:none;" d="M336 624L336 625L347 625L336 624M348 624L349 625L348 624M350 624L351 625L350 624M352 624L353 625L352 624M354 624L354 625L358 625L354 624z"/>
<path style="fill:#8ed3dc; stroke:none;" d="M358 624L359 625L358 624z"/>
<path style="fill:#57c5db; stroke:none;" d="M359 624L360 625L359 624z"/>
<path style="fill:#8ed3dc; stroke:none;" d="M360 624L360 625L368 625L360 624M372 624L372 625L402 625L372 624z"/>
<path style="fill:#57c5db; stroke:none;" d="M442 624L442 625L447 625L442 624z"/>
<path style="fill:#8ed3dc; stroke:none;" d="M447 624L447 625L511 625L491 624L447 624z"/>
<path style="fill:#57c5db; stroke:none;" d="M511.667 624.333L512.333 624.667L511.667 624.333z"/>
<path style="fill:#8ed3dc; stroke:none;" d="M701 624L704 626L701 624M785 624L786 625L785 624M405 625L405 728L406 728L406 656L405 625M437 625L437 722L438 722L438 655L437 625M783.667 625.333L784.333 625.667L783.667 625.333M705 626L706 627L705 626M781.667 626.333L782.333 626.667L781.667 626.333M573.333 627.667L573.667 628.333L573.333 627.667M706 627L707 628L706 627M780 627L781 628L780 627M708.667 628.333L709.333 628.667L708.667 628.333M778 628L779 629L778 628M572 629L571 632L572 629M710.667 629.333L711.333 629.667L710.667 629.333M775.667 629.333L776.333 629.667L775.667 629.333M713.667 630.333L714.333 630.667L713.667 630.333M773.667 630.333L774.333 630.667L773.667 630.333M715.667 631.333L716.333 631.667L715.667 631.333M770.667 631.333L771.333 631.667L770.667 631.333M570.333 632.667L570.667 633.333L570.333 632.667M717 632L717 633L720 633L717 632M767 632L767 633L770 633L767 632M720 633L720 634L724 634L720 633M760 634L760 635L767 634L760 634M569 634L567 640L568 640L569 634M724 634L724 635L727 635L724 634z"/>
<path style="fill:#57c5db; stroke:none;" d="M763 634L764 635L763 634z"/>
<path style="fill:#8ed3dc; stroke:none;" d="M727 635L727 644L728 644L727 635z"/>
<path style="fill:#62b3b7; stroke:none;" d="M343 640L343 641C348.778 641 355.413 640.112 361 641.8C378.966 647.228 372.303 668.927 368.573 682C360.513 710.242 342.832 735.285 320 753.551C306.422 764.414 286.69 777.45 277 755C275.27 760.944 281.521 767.148 287.001 768.585C297.24 771.269 306.023 766.672 314 760.579C339.853 740.828 359.678 716.45 369.413 685C373.71 671.116 382.004 645.714 362 640.04C356.136 638.377 349.065 640 343 640z"/>
<path style="fill:#8ed3dc; stroke:none;" d="M566 640L566 648L567 648L566 640M337 673L338 673L341.91 652L344.318 643.028L361 642C357.383 640.482 344.786 639.121 342.028 642.603C340.218 644.888 341.042 649.266 340.715 652C339.866 659.087 337.949 665.956 337 673z"/>
<path style="fill:#f8fefe; stroke:none;" d="M343.603 643.028C340.829 645.225 341.738 652.733 341.271 656C339.786 666.391 336.51 676.297 332.548 686C326.422 701 315.386 715.313 303 725.675C295.77 731.724 281.935 736.698 278.614 746.004C273.692 759.797 288.046 772.355 301 765.865C334.968 748.846 360.169 713.328 369.522 677C373.556 661.329 375.782 642.036 354 642C351.093 641.995 346.049 641.091 343.603 643.028z"/>
<path style="fill:#8ed3dc; stroke:none;" d="M362.667 642.333L363.333 642.667L362.667 642.333z"/>
<path style="fill:#62b3b7; stroke:none;" d="M340 643C334.82 670.903 330.115 696.093 308.572 717.079C302.834 722.669 295.913 729.948 288 732L276 748L277 748C282.081 737.785 291.788 734.937 300 727.819C318.748 711.569 332.747 691.445 338.349 667C339.925 660.123 342.813 649.704 340 643z"/>
<path style="fill:#8ed3dc; stroke:none;" d="M364.667 643.333L365.333 643.667L364.667 643.333z"/>
<path style="fill:#62b3b7; stroke:none;" d="M839 643L840 644L839 643z"/>
<path style="fill:#8ed3dc; stroke:none;" d="M366 644L367 645L366 644M660 644L660 645L720 645L701 644L660 644M721 644L721 645L727 645L721 644M760 644L760 645L763 645L760 644M765 644L765 645L818 645C822.704 645 833.708 642.977 837.258 646.603C844.551 654.054 835.839 671.812 828 674.991C821.95 677.444 813.425 676 807 676L761 676L761 677L813 677C822.027 677 830.418 677.947 836.581 669.985C841.938 663.063 840 652.215 840 644L765 644M367 645L369 647L369 645L367 645M657.667 645.333L658.333 645.667L657.667 645.333z"/>
<path style="fill:#62b3b7; stroke:none;" d="M840 645C840 654.32 841.537 664.44 834.532 671.787C828.496 678.117 819.958 677 812 677L760 677L760 768C751.277 768 740.107 770.015 733.044 763.775C725.452 757.068 727 747.142 727 738L727 677C706.525 677 680.927 681.184 661 676.606C654.441 675.099 649.63 669.244 648 663L647 663C648.594 686.758 689.935 679 706 679C710.458 679 721.116 677.038 723.972 681.318C727.038 685.912 725 696.639 725 702C725 718.635 720.089 744.737 727.353 759.961C731.265 768.161 757.612 777.106 761.427 764.941C763.888 757.096 762 746.182 762 738L762 679L816 679L834 677C839.314 667.66 844.62 656.01 840 645z"/>
<path style="fill:#8ed3dc; stroke:none;" d="M655.667 646.333L656.333 646.667L655.667 646.333M369 647L370 648L369 647M654 647L655 648L654 647M370 648L371 649L370 648M599 648L600 649L599 648M653 648L654 649L653 648M371.333 649.667L371.667 650.333L371.333 649.667M567.333 649.667L567.667 650.333L567.333 649.667M598 649L599 650L598 649M652 649L653 650L652 649M597.333 650.667L597.667 651.333L597.333 650.667M651 650L652 651L651 650M372 651L372 654L373 654L372 651M568 651L576 659L576 658L568 651M650 651L649 655L650 655L650 651M596 652L597 653L596 652z"/>
<path style="fill:#57c5db; stroke:none;" d="M649 652L650 653L649 652M340 653L341 654L340 653z"/>
<path style="fill:#8ed3dc; stroke:none;" d="M595 653L594 656L595 653z"/>
<path style="fill:#57c5db; stroke:none;" d="M569 654L570 655L569 654z"/>
<path style="fill:#8ed3dc; stroke:none;" d="M648 655L648 666L649 666L648 655z"/>
<path style="fill:#57c5db; stroke:none;" d="M571 656L572 657L571 656z"/>
<path style="fill:#8ed3dc; stroke:none;" d="M591 658L594 656L591 658z"/>
<path style="fill:#57c5db; stroke:none;" d="M572 657L573 658L572 657M593 657L594 658L593 657z"/>
<path style="fill:#8ed3dc; stroke:none;" d="M589.667 658.333L590.333 658.667L589.667 658.333M576 659L576 660L579 660L576 659M586 659L586 660L589 660L586 659M580 660L580 661L585 661L580 660M372 661L372 665L373 665L372 661z"/>
<path style="fill:#62b3b7; stroke:none;" d="M575 661L576 662L575 661z"/>
<path style="fill:#8ed3dc; stroke:none;" d="M649 666L650 670L651 670L649 666M371.333 668.667L371.667 669.333L371.333 668.667z"/>
<path style="fill:#57c5db; stroke:none;" d="M649 668L650 669L649 668z"/>
<path style="fill:#8ed3dc; stroke:none;" d="M651 670L652 671L651 670M652 671L653 672L652 671M370 672L370 675L371 675L370 672M653 672L654 673L653 672z"/>
<path style="fill:#57c5db; stroke:none;" d="M834 672L835 673L834 672z"/>
<path style="fill:#8ed3dc; stroke:none;" d="M654 673L655 674L654 673z"/>
<path style="fill:#57c5db; stroke:none;" d="M833 673L834 674L833 673z"/>
<path style="fill:#8ed3dc; stroke:none;" d="M336.333 674.667L336.667 675.333L336.333 674.667M655.667 674.333L656.333 674.667L655.667 674.333M657 675L657 676C678.073 681.017 704.335 677 726 677L726 676L657 675M335.333 677.667L335.667 678.333L335.333 677.667M369.333 677.667L369.667 678.333L369.333 677.667M727 677L727 756L728 756L728 702L727 677M334 680L335 681L334 680M368 680L368 683L369 683L368 680M503 680L503 681L507 681L503 680M521 680L521 681L523 696L522 733L523 733L524 680L521 680M500.667 681.333L501.333 681.667L500.667 681.333M333.333 682.667L333.667 683.333L333.333 682.667M498.667 682.333L499.333 682.667L498.667 682.333M367 683L367 686L368 686L367 683M497 683L498 684L497 683M496 684L497 685L496 684z"/>
<path style="fill:#62b3b7; stroke:none;" d="M680 698C678.833 714.312 653.694 724.866 652 740C644.797 744.617 648.392 757.495 653.46 762.606C658.109 767.296 666.927 768.1 673 766.196C690.557 760.691 698.719 733.973 711 722C710.468 719.338 717.484 710.549 719 706C722.753 694.74 706.514 679.203 695 684C689.597 686.251 682.031 698.508 680 698M770 698L771 698C775.603 688.332 786.338 681.854 795.996 689.394C807.551 698.417 815.949 716.128 824.556 728C828.917 734.016 836.01 739.434 837.609 747C839.917 757.922 827.516 768.623 817 765.347C810.528 763.331 806.934 756.84 801 754C804.696 759.265 809.502 765.201 816.004 766.955C828.904 770.436 840.886 760.117 839.102 747C838.023 739.067 831.075 732.879 826.195 727C816.436 715.243 809.407 696.356 797 687.51C786.82 680.252 772.372 685.739 770 698z"/>
<path style="fill:#8ed3dc; stroke:none;" d="M332.333 685.667L332.667 686.333L332.333 685.667M495 685L496 686L495 685M366 686L366 689L367 689L366 686M494 686L495 687L494 686z"/>
<path style="fill:#57c5db; stroke:none;" d="M694.667 686.333L695.333 686.667L694.667 686.333z"/>
<path style="fill:#8ed3dc; stroke:none;" d="M650 747L651 747C655.305 732.507 671.564 718.726 679.996 706C683.789 700.275 686.908 692.877 693.015 689.228C702.633 683.483 715.397 690.886 715.852 702C716.105 708.178 711.492 713.663 709 719C722.001 707.084 716.971 681.444 696 686.533C688.948 688.245 685.697 694.391 681.997 700C675.45 709.924 668.731 719.683 661.336 729C656.816 734.693 651.342 739.589 650 747z"/>
<path style="fill:#57c5db; stroke:none;" d="M705 686L706 687L705 686M781 686L782 687L781 686z"/>
<path style="fill:#8ed3dc; stroke:none;" d="M771 708L772 708C770.525 695.508 781.665 680.651 794.985 689.703C803.05 695.183 805.524 705.91 813 712C808.467 703.858 802.054 690.676 793 687.009C779.181 681.412 767.945 695.13 771 708M331.333 687.667L331.667 688.333L331.333 687.667M493.333 687.667L493.667 688.333L493.333 687.667z"/>
<path style="fill:#f8fefe; stroke:none;" d="M696 687.558C688.822 689.441 685.612 696.225 681.947 702C673.244 715.713 656.304 729.85 651.11 745C647.084 756.743 658.5 767.243 670 764.606C676.579 763.097 680.98 756.829 685.13 752C695.68 739.724 710.861 722.863 715.363 707C718.784 694.942 707.94 684.425 696 687.558M782 687.653C773.031 690.466 769.279 700.733 772.725 709C779.678 725.68 793.247 741.289 804.754 755C810.3 761.609 816.79 767.142 825.999 764.351C834.591 761.747 839.007 752.301 835.856 744C832.864 736.118 825.147 729.665 820.13 723C812.647 713.056 806.855 699.76 797.816 691.225C793.775 687.41 787.33 685.981 782 687.653z"/>
<path style="fill:#8ed3dc; stroke:none;" d="M330.333 689.667L330.667 690.333L330.333 689.667M365 689L365 692L366 692L365 689M492.333 689.667L492.667 690.333L492.333 689.667M329.333 691.667L329.667 692.333L329.333 691.667z"/>
<path style="fill:#57c5db; stroke:none;" d="M774 691L775 692L774 691z"/>
<path style="fill:#8ed3dc; stroke:none;" d="M364 692L363 697L364 697L364 692M491 692L491 695L492 695L491 692M328.333 693.667L328.667 694.333L328.333 693.667z"/>
<path style="fill:#57c5db; stroke:none;" d="M490 693L491 694L490 693z"/>
<path style="fill:#8ed3dc; stroke:none;" d="M327 695L326 698L327 695M491 696L491 702L492 702L491 696M362.333 697.667L362.667 698.333L362.333 697.667M325.333 698.667L325.667 699.333L325.333 698.667M361 699L356 711L357 711L361 699z"/>
<path style="fill:#62b3b7; stroke:none;" d="M769 699L769 705L770 705L769 699z"/>
<path style="fill:#8ed3dc; stroke:none;" d="M324 700L325 701L324 700M323.333 701.667L323.667 702.333L323.333 701.667z"/>
<path style="fill:#57c5db; stroke:none;" d="M361 701L362 702L361 701z"/>
<path style="fill:#8ed3dc; stroke:none;" d="M322 703L321 706L322 703z"/>
<path style="fill:#57c5db; stroke:none;" d="M807 703L808 704L807 703z"/>
<path style="fill:#8ed3dc; stroke:none;" d="M320 706L321 707L320 706z"/>
<path style="fill:#62b3b7; stroke:none;" d="M770 706C771.908 718.275 786.223 740.823 797 747L802 753L770 706z"/>
<path style="fill:#57c5db; stroke:none;" d="M809 706L810 707L809 706z"/>
<path style="fill:#8ed3dc; stroke:none;" d="M319 707L318 710L319 707z"/>
<path style="fill:#57c5db; stroke:none;" d="M716 707L717 708L716 707M771 708L772 709L771 708M357 709L358 710L357 709z"/>
<path style="fill:#8ed3dc; stroke:none;" d="M772 709L774 712L772 709M317 710L318 711L317 710M316 711L317 712L316 711M355.333 711.667L355.667 712.333L355.333 711.667M315 712L316 713L315 712M774.333 712.667L774.667 713.333L774.333 712.667M354 713L355 714L354 713z"/>
<path style="fill:#57c5db; stroke:none;" d="M713 713L714 714L713 713z"/>
<path style="fill:#8ed3dc; stroke:none;" d="M813 713L814 714L813 713M314 714L315 715L314 714M775.333 714.667L775.667 715.333L775.333 714.667M814 714L815 715L814 714M313 715L314 716L313 715M353 715L354 716L353 715M312 716L313 717L312 716M352.333 716.667L352.667 717.333L352.333 716.667M776 716L777 717L776 716M815 716L816 717L815 716M311 717L312 718L311 717M777.333 717.667L777.667 718.333L777.333 717.667M816 717L819 721L816 717M310 718L311 719L310 718M351 718L352 719L351 718M309 719L310 720L309 719M778 719L779 720L778 719M308 720L309 721L308 720M350 720L351 721L350 720M708 720L709 721L708 720M307 721L308 722L307 721M349 721L350 722L349 721z"/>
<path style="fill:#57c5db; stroke:none;" d="M667 721L668 722L667 721z"/>
<path style="fill:#8ed3dc; stroke:none;" d="M707.333 721.667L707.667 722.333L707.333 721.667M779 721L780 722L779 721M819 721L823 728L824 728L819 721M301 727L307 722L301 727M348.333 722.667L348.667 723.333L348.333 722.667M780 722L781 723L780 722M706 723L707 724L706 723z"/>
<path style="fill:#57c5db; stroke:none;" d="M821 723L822 724L821 723z"/>
<path style="fill:#8ed3dc; stroke:none;" d="M347 724L348 725L347 724M438.333 724.667L438.667 725.333L438.333 724.667M490.333 724.667L490.667 725.333L490.333 724.667M705 724L706 725L705 724M781 724L782 725L781 724z"/>
<path style="fill:#57c5db; stroke:none;" d="M822 724L823 725L822 724z"/>
<path style="fill:#8ed3dc; stroke:none;" d="M346 725L345 728L346 725z"/>
<path style="fill:#57c5db; stroke:none;" d="M705 725L706 726L705 725z"/>
<path style="fill:#8ed3dc; stroke:none;" d="M782 725L784 728L782 725M439.333 726.667L439.667 727.333L439.333 726.667M489.333 726.667L489.667 727.333L489.333 726.667z"/>
<path style="fill:#57c5db; stroke:none;" d="M663 726L664 727L663 726z"/>
<path style="fill:#8ed3dc; stroke:none;" d="M704 726L705 727L704 726M300 727L301 728L300 727M703 727L702 730L703 727M299 728L300 729L299 728M344 728L342 732L343 732L344 728M440 728L441 729L440 728M488 728L489 729L488 728M784 728L786 731L784 728M824 728L825 729L824 728z"/>
<path style="fill:#57c5db; stroke:none;" d="M344 729L345 730L344 729z"/>
<path style="fill:#8ed3dc; stroke:none;" d="M441 729L442 730L441 729M487 729L488 730L487 729M825 729L826 730L825 729M296 730L297 731L296 730M406.333 730.667L406.667 731.333L406.333 730.667M442 730L443 731L442 730M486 730L487 731L486 730z"/>
<path style="fill:#57c5db; stroke:none;" d="M660 730L661 731L660 730z"/>
<path style="fill:#8ed3dc; stroke:none;" d="M701 730L700 733L701 730M826 730L828 733L826 730M295 731L296 732L295 731M443.667 731.333L444.333 731.667L443.667 731.333M484.667 731.333L485.333 731.667L484.667 731.333M786 731L787 732L786 731M293 732L294 733L293 732M341 732L342 733L341 732M446.667 732.333L447.333 732.667L446.667 732.333M479 732L479 733L483 733L479 732M787.333 732.667L787.667 733.333L787.333 732.667M292 733L293 734L292 733M340 733L341 734L340 733M521 733L521 736L522 736L521 733M699 733L700 734L699 733M828 733L829 734L828 733M290 734L291 735L290 734M339 734L336 739L339 734M407.333 734.667L407.667 735.333L407.333 734.667M698.333 734.667L698.667 735.333L698.333 734.667M788 734L789 735L788 734M829 734L830 735L829 734M288.667 735.333L289.333 735.667L288.667 735.333z"/>
<path style="fill:#57c5db; stroke:none;" d="M339 735L340 736L339 735z"/>
<path style="fill:#8ed3dc; stroke:none;" d="M789 735L790 738L791 738L789 735M830 735L831 736L830 735M287 736L288 737L287 736M408 736L408 739L409 739L408 736M520 736L520 739L521 739L520 736M697 736L698 737L697 736z"/>
<path style="fill:#57c5db; stroke:none;" d="M789 736L790 737L789 736z"/>
<path style="fill:#8ed3dc; stroke:none;" d="M831 736L832 737L831 736M285.667 737.333L286.333 737.667L285.667 737.333M696 737L695 740L696 737M832 737L835 741L832 737M282 740L285 738L282 740M791 738L792 739L791 738M335 739L336 740L335 739M409.333 739.667L409.667 740.333L409.333 739.667M519.333 739.667L519.667 740.333L519.333 739.667M792 739L794 742L792 739M281 740L282 741L281 740M334 740L335 741L334 740M694 740L695 741L694 740M280 741L281 742L280 741M333 741L334 742L333 741M410.333 741.667L410.667 742.333L410.333 741.667M518 741L516 746L517 746L518 741M693 741L692 744L693 741M835.333 741.667L835.667 742.333L835.333 741.667M279.333 742.667L279.667 743.333L279.333 742.667M332 742L333 743L332 742M794 742L795 743L794 742M331 743L332 744L331 743M411 743L413 746L411 743M795 743L796 744L795 743M836 743L836 756L837 756L836 743M278.333 744.667L278.667 745.333L278.333 744.667M330 744L331 745L330 744M691 744L692 745L691 744M796.333 744.667L796.667 745.333L796.333 744.667M329 745L330 746L329 745M690 745L691 746L690 745M328 746L329 747L328 746M413 746L415 749L413 746M515 746L516 747L515 746z"/>
<path style="fill:#57c5db; stroke:none;" d="M649 746L649 753L650 753L649 746z"/>
<path style="fill:#8ed3dc; stroke:none;" d="M689.333 746.667L689.667 747.333L689.333 746.667M797 746L798 747L797 746M277 747L277 751L278 751L277 747M325 749L328 747L325 749z"/>
<path style="fill:#57c5db; stroke:none;" d="M516 747L517 748L516 747z"/>
<path style="fill:#8ed3dc; stroke:none;" d="M798 747L799 748L798 747M514 748L515 749L514 748M688 748L689 749L688 748M799 748L801 751L799 748z"/>
<path style="fill:#62b3b7; stroke:none;" d="M276 749L277 750L276 749z"/>
<path style="fill:#8ed3dc; stroke:none;" d="M324 749L325 750L324 749M415 749L416 750L415 749M513 749L514 750L513 749M687 749L688 750L687 749M323 750L324 751L323 750M416 750L417 751L416 750M512 750L513 751L512 750M686 750L687 751L686 750M322 751L323 752L322 751M417 751L418 752L417 751M511 751L512 752L511 751M685 751L686 752L685 751M801 751L802 752L801 751z"/>
<path style="fill:#62b3b7; stroke:none;" d="M275.667 752.333L276.333 752.667L275.667 752.333z"/>
<path style="fill:#8ed3dc; stroke:none;" d="M321 752L322 753L321 752M418 752L419 753L418 752M510 752L511 753L510 752M650 752L650 755L651 755L650 752M684 752L683 755L684 752M802 752L806 757L802 752M277 753L277 757L278 757L277 753M319.667 753.333L320.333 753.667L319.667 753.333M419 753L420 754L419 753M509 753L510 754L509 753M318 754L319 755L318 754M420 754L421 755L420 754M508 754L509 755L508 754M600.333 754.667L600.667 755.333L600.333 754.667z"/>
<path style="fill:#57c5db; stroke:none;" d="M837 754L838 755L837 754z"/>
<path style="fill:#8ed3dc; stroke:none;" d="M317 755L318 756L317 755M421 755L422 756L421 755M507 755L508 756L507 755M682 755L671 764L671 765C675.811 763.856 681.661 760.381 682 755M315.667 756.333L316.333 756.667L315.667 756.333M422 756L425 758L422 756M504 758L507 756L504 758M651 756L652 757L651 756z"/>
<path style="fill:#57c5db; stroke:none;" d="M682 756L683 757L682 756z"/>
<path style="fill:#8ed3dc; stroke:none;" d="M728 756L730 762L731 762L728 756M835.333 756.667L835.667 757.333L835.333 756.667M278.333 757.667L278.667 758.333L278.333 757.667M314 757L315 758L314 757M601.333 757.667L601.667 758.333L601.333 757.667z"/>
<path style="fill:#57c5db; stroke:none;" d="M651 757L652 758L651 757z"/>
<path style="fill:#8ed3dc; stroke:none;" d="M806 757L808 759L806 757M308 761L308 762L314 759L308 761M425 758L428 760L425 758M499 760L499 761L504 759L499 760M652 758L653 759L652 758z"/>
<path style="fill:#57c5db; stroke:none;" d="M806 758L807 759L806 758z"/>
<path style="fill:#8ed3dc; stroke:none;" d="M834 758L833 761L834 758M602.333 759.667L602.667 760.333L602.333 759.667M653 759L654 760L653 759M808 759L809 760L808 759M279 760L280 761L279 760z"/>
<path style="fill:#57c5db; stroke:none;" d="M311 760L312 761L311 760z"/>
<path style="fill:#8ed3dc; stroke:none;" d="M428.667 760.333L429.333 760.667L428.667 760.333M654 760L655 761L654 760M809 760L810 761L809 760M280 761L281 762L280 761M430 761L430 762L435 763L435 762L430 761M494 762L494 763L499 762L494 762M603 761L604 762L603 761M655 761L656 762L655 761M810 761L811 762L810 761M830 763L833 761L830 763M281 762L284 765L281 762M305 764L308 762L305 764M604 762L607 765L604 762M656 762L657 763L656 762M731 762L732 763L731 762M811 762L812 763L811 762M435 763L435 764L439 764L435 763M490 763L490 764L494 764L490 763M657.667 763.333L658.333 763.667L657.667 763.333z"/>
<path style="fill:#57c5db; stroke:none;" d="M675 763L676 764L675 763z"/>
<path style="fill:#8ed3dc; stroke:none;" d="M732 763L733 764L732 763M812.667 763.333L813.333 763.667L812.667 763.333M826 764L826 765L830 764L826 764M303.667 764.333L304.333 764.667L303.667 764.333M439 764L439 765L444 765L439 764M485 764L485 765L490 765L485 764z"/>
<path style="fill:#57c5db; stroke:none;" d="M605 764L606 765L605 764z"/>
<path style="fill:#8ed3dc; stroke:none;" d="M659.667 764.333L660.333 764.667L659.667 764.333M733 764L736 766L733 764M814.667 764.333L815.333 764.667L814.667 764.333M284 765L285 766L284 765M301.667 765.333L302.333 765.667L301.667 765.333M445 765L445 766L484 766C473.726 761.689 456.172 765 445 765M607 765L610 767L607 765M662 765L662 766L671 766L662 765M816 765L816 766L826 766L816 765M285.667 766.333L286.333 766.667L285.667 766.333M300 766L301 767L300 766M736.667 766.333L737.333 766.667L736.667 766.333M759 766L758 768L760 768L759 766M288.667 767.333L289.333 767.667L288.667 767.333M297.667 767.333L298.333 767.667L297.667 767.333M611.667 767.333L612.333 767.667L611.667 767.333M739 767L739 768L742 768L739 767z"/>
</svg>
