<?xml version="1.0" standalone="yes"?>
<svg xmlns="http://www.w3.org/2000/svg" width="881" height="550">
<path style="fill:#ffffff; stroke:none;" d="M0 0L0 550L881 550L881 0L0 0z"/>
<path style="fill:#ffa9a3; stroke:none;" d="M185 143L185 144L189 144L185 143z"/>
<path style="fill:#3469ff; stroke:none;" d="M189 143.424C167.93 146.157 149.49 150.463 132 163.478C86.3459 197.452 79.7705 264.875 110.079 311C136.192 350.741 180.623 368.991 227 366.961C270.737 365.045 311.578 335.254 329.691 296C337.656 278.736 339.99 261.538 342.424 243C345.264 221.37 339.037 196.619 330.136 177C326.436 168.845 321.457 158.786 312 156.532C305.89 155.076 285.945 153.119 285.203 162.015C284.659 168.537 291.894 175.497 294.742 181C301.048 193.188 306.136 206.282 307.844 220C315.822 284.085 265.229 344.371 198 331.739C170.304 326.535 143.951 306.936 132.439 281C114.433 240.435 133.1 187.308 180 178.46C199.661 174.751 220.545 179.623 234.961 194.039C241.747 200.826 245.505 217.565 253.108 221.821C257.173 224.097 263.508 223 268 223C271.38 223 275.825 223.698 278.891 221.972C290.147 215.636 274.933 189.964 270.251 183C253.551 158.161 219.674 139.446 189 143.424z"/>
<path style="fill:#ffa9a3; stroke:none;" d="M197 143L197 144L202 144L197 143M176.667 144.333L177.333 144.667L176.667 144.333M208.667 144.333L209.333 144.667L208.667 144.333M171 145L172 146L171 145M213.667 145.333L214.333 145.667L213.667 145.333M167 146L168 147L167 146M218 146L219 147L218 146M163 147L164 148L163 147M221 147L222 148L221 147M160 148L161 149L160 148M225 148L226 149L225 148M157 149L158 150L157 149M227 149L228 150L227 149M155 150L156 151L155 150M232 151L233 152L232 151M150 152L151 153L150 152M234 152L235 153L234 152M148 153L149 154L148 153M236 153L237 154L236 153M146 154L147 155L146 154M238 154L239 155L238 154M144 155L145 156L144 155M240 155L241 156L240 155M288 156L289 157L288 156M312 156L313 157L312 156M315 157L316 158L315 157M139 158L140 159L139 158M245 158L246 159L245 158M246 159L247 160L246 159M318 159L319 160L318 159M136 160L137 161L136 160M249 161L250 162L249 161M649 161L650 162L649 161z"/>
<path style="fill:#3469ff; stroke:none;" d="M615 204C609.918 213.119 602.428 220.854 599.22 231C597.724 235.731 596.668 241.043 597.29 246C601.979 283.38 645.897 276 673 276L673 295C648.842 295 619.626 290.466 596.001 295.344C588.674 296.857 586.444 307.799 590.028 313.852C593.274 319.335 605.589 317 611 317L673 317C673 324.316 670.72 336.324 674.318 342.891C677.629 348.934 695.285 349.28 699.258 343.852C703.747 337.717 696.527 320.931 704.148 317.603C719.427 310.933 743.279 324.198 757.891 315.972C765.407 311.741 762.722 297.82 754.996 295.573C739.407 291.038 717.246 295 701 295C701 290.463 699.421 282.225 702.028 278.318C704.629 274.42 712.989 276 717 276L746 276C749.92 276 755.455 276.957 758.772 274.397C765.081 269.526 762.539 256.526 754.996 254.434C739.313 250.083 717.301 254 701 254C701 246.406 703.611 232.841 699.821 226.109C696.218 219.707 678.036 219.75 674.457 226.109C670.515 233.112 673 246.151 673 254C661.701 254 639.464 258.234 630.044 251.347C616.355 241.34 632.286 225.23 638.859 216C641.626 212.114 644.292 206.391 649.015 204.603C655.892 202 666.691 204 674 204L730 204C737.675 204 751.265 206.582 757.891 202.142C767.509 195.698 760.947 181.84 751 181.09C722.018 178.906 692.072 181 663 181C666.117 177.069 672.725 170.649 671.627 165.109C670.174 157.769 650.554 160.52 646.015 163.228C639.213 167.286 636.71 178.693 628.985 180.682C618.162 183.468 601.833 176.419 592.148 182.938C586.891 186.477 587.504 199.721 593.059 202.682C598.883 205.787 608.576 204 615 204z"/>
<path style="fill:#ffa9a3; stroke:none;" d="M669 161L670 162L669 161M133 162L134 163L133 162M284 162L285 163L284 162M321 162L322 163L321 162M322 163L323 164L322 163M434 163L434 164L524 164L496 163L434 163M645 163L646 164L645 163M253 164L254 165L253 164M427 164L428 165L427 164z"/>
<path style="fill:#3469ff; stroke:none;" d="M412 257C404.871 268.552 381.068 298.2 410 301.815C414.904 302.427 420.063 302 425 302C421.19 308.174 416.88 314.056 412.72 320C408.845 325.535 399.36 334.873 399.453 341.956C399.563 350.326 420.365 347.576 424.996 344.91C440.06 336.241 442.79 311.749 457.326 303.028C463.594 299.267 477.784 302 485 302C480.73 307.962 476.497 313.958 472.341 320C468.463 325.637 459.085 334.762 459.282 341.981C459.523 350.819 481.306 347.383 485.96 344.146C499.237 334.909 503.855 315.303 515.515 304.318C519.009 301.025 526.64 301.268 530.996 302.653C547.41 307.87 533.28 326.435 527.404 334C525.076 336.997 520.63 342.684 525.318 345.821C528.57 347.997 534.288 347.006 538 347C561.502 346.961 573.592 312.505 561.867 294C552.683 279.506 537.137 280 522 280L428 280C430.994 275.599 434.298 268.635 439.093 266.028C445.806 262.378 459.464 265 467 265C492.683 265 527.992 271.128 550 255.073C579.136 233.817 576.323 187.525 545 169.876C532.999 163.114 520.272 164 507 164L449 164C436.371 164 424.384 163.384 413 169.879C382.235 187.431 376.841 240.271 412 257z"/>
<path style="fill:#ffa9a3; stroke:none;" d="M530 164L531 165L530 164M129 165L130 166L129 165M254 165L255 166L254 165M423 165L424 166L423 165M534 165L535 166L534 165M128 166L129 167L128 166M420 166L421 167L420 166M537 166L538 167L537 166M286 167L287 168L286 167M540 167L541 168L540 167M325 168L326 169L325 168M415 168L416 169L415 168M542 168L543 169L542 168M640 168L641 169L640 168M544 169L545 170L544 169M288 170L289 171L288 170M326 170L327 171L326 170M670 170L671 171L670 170M410 171L411 172L410 171M547 171L548 172L547 171M637 172L638 173L637 172M262 173L263 174L262 173M290 173L291 174L290 173M407 173L408 174L407 173M550 173L551 174L550 173M668 173L669 174L668 173M263 174L264 175L263 174M406 174L407 175L406 174M264 175L265 176L264 175M635 175L636 176L635 175M292 176L293 177L292 176M186 177L186 178L191 178L186 177M196 177L196 178L200 178L196 177M665 177L666 178L665 177M179.667 178.333L180.333 178.667L179.667 178.333M205 178L206 179L205 178M293 178L294 179L293 178M633 178L634 179L633 178M115 179L116 180L115 179M175 179L176 180L175 179M209.667 179.333L210.333 179.667L209.667 179.333M267 179L268 180L267 179M114 180L115 181L114 180M171.667 180.333L172.333 180.667L171.667 180.333M213 180L214 181L213 180M331 180L332 181L331 180M663 180L664 181L663 180M594.667 181.333L595.333 181.667L594.667 181.333M754.667 181.333L755.333 181.667L754.667 181.333M166 182L167 183L166 182M218 182L219 183L218 182M332 182L333 183L332 182M398 182L399 183L398 182M164 183L165 184L164 183M220 183L221 184L220 183M270 183L271 184L270 183M397 183L398 184L397 183M560 183L561 184L560 183M759 183L760 184L759 183M111 184L112 185L111 184M162 184L163 185L162 184M222 184L223 185L222 184M160 185L161 186L160 185M224 185L225 186L224 185M158 186L159 187L158 186M272 186L273 187L272 186M395 186L396 187L395 186M435 186L436 187L435 186z"/>
<path style="fill:#ffffff; stroke:none;" d="M436 186.518C411.191 191.819 406.091 226.072 428 238.633C436.352 243.422 446.762 242 456 242C476.882 242 503.837 246.535 524 241.073C548.108 234.542 550.935 200.064 529 188.836C520.345 184.405 509.407 186 500 186C479.873 186 455.671 182.315 436 186.518z"/>
<path style="fill:#ffa9a3; stroke:none;" d="M522 186L523 187L522 186M562 186L563 187L562 186M761 186L762 187L761 186M109 187L110 188L109 187M227 187L228 188L227 187M334 187L335 188L334 187M432 187L433 188L432 187M588 187L588 198L589 198L588 187M155 188L156 189L155 188M273 188L274 189L273 188M528 188L529 189L528 188M393 189L394 190L393 189M564 189L565 190L564 189M107 190L108 191L107 190M152 190L153 191L152 190M231 190L232 191L231 190M274 190L275 191L274 190M299 190L300 191L299 190M335 190L336 191L335 190M426 190L427 191L426 190M232 191L233 192L232 191M392 191L393 192L392 191M565 191L566 192L565 191M233 192L234 193L233 192M275 192L276 193L275 192M300 192L301 193L300 192M423 192L424 193L423 192M534 192L535 193L534 192M105 193L106 194L105 193M336 193L337 194L336 193M422 193L423 194L422 193M535 193L536 194L535 193M566 193L567 194L566 193M276 194L277 195L276 194M421 194L422 195L421 194M536 194L537 195L536 194M104 195L105 196L104 195M146 195L147 196L146 195M301 195L302 196L301 195M420 195L421 196L420 195M537 195L538 196L537 195M145 196L146 197L145 196M237 196L238 197L237 196M277 196L278 197L277 196M390 196L391 197L390 196M567 196L568 197L567 196M103 197L104 198L103 197M238 197L239 198L238 197M337 197L338 198L337 197M278 198L279 199L278 198M761 198L762 199L761 198M102 199L103 200L102 199M389 199L390 200L389 199M540 199L541 200L540 199M568 199L569 200L568 199M338 200L339 201L338 200M760 200L761 201L760 200M101 201L102 202L101 201M241 201L242 202L241 201M279 201L280 202L279 201M303 201L304 202L303 201M416 201L417 202L416 201M541 201L542 202L541 201M759 201L760 202L759 201M569.333 202.667L569.667 203.333L569.333 202.667M758 202L759 203L758 202M100 203L101 204L100 203M139 203L140 204L139 203M388 203L389 204L388 203M435 203L436 204L435 203z"/>
<path style="fill:#3469ff; stroke:none;" d="M436.044 203.742C428.403 206.856 428.996 222.302 437.015 224.566C443.291 226.339 451.509 225 458 225L500 225C506.401 225 517.171 227.041 522.891 223.821C529.613 220.037 528.604 205.585 520.985 203.434C514.993 201.742 507.195 203 501 203L460 203C453.004 203 442.589 201.075 436.044 203.742z"/>
<path style="fill:#ffa9a3; stroke:none;" d="M522 203L523 204L522 203M594 203L595 204L594 203M755 203L756 204L755 203M243 204L244 205L243 204M280 204L281 205L280 204M304 204L305 205L304 204M524 204L525 205L524 204M339 205L340 206L339 205M614 205L615 206L614 205M244 206L245 207L244 206M281 207L282 208L281 207M414 207L415 208L414 207M431 207L432 208L431 207M526 207L527 208L526 207M543 207L544 208L543 207M644 207L645 208L644 207M98 208L99 209L98 208M245 208L246 209L245 208M305 208L306 209L305 208M570 208L570 211L571 211L570 208M612 208L613 209L612 208M135 209L136 210L135 209M340.333 209.667L340.667 210.333L340.333 209.667M387 209L387 213L388 213L387 209M246 210L247 211L246 210M642 210L643 211L642 210M282 211L283 212L282 211M610 211L611 212L610 211M247 212L248 213L247 212M306 212L307 213L306 212M544.333 213.667L544.667 214.333L544.333 213.667M640 213L641 214L640 213M248 215L249 216L248 215M341.333 215.667L341.667 216.333L341.333 215.667M607 215L608 216L607 215M387 216L387 220L388 220L387 216M95 217L96 218L95 217M307.333 217.667L307.667 218.333L307.333 217.667M570 217L570 220L571 220L570 217M637 217L638 218L637 217M249 218L250 219L249 218M282 218L283 219L282 218M605 218L606 219L605 218M130 219L131 220L130 219M94 220L95 221L94 220M281 220L282 221L281 220M414 220L415 221L414 220M431 220L432 221L431 220M526 220L527 221L526 220M635 220L636 221L635 220M280 221L281 222L280 221M543 221L544 222L543 221M603 221L604 222L603 221M129 222L130 223L129 222M253 222L254 223L253 222M525 222L526 223L525 222M696 222L697 223L696 222M257 223L257 224L276 224L257 223M433 223L434 224L433 223M524 223L525 224L524 223M602 223L603 224L602 223M633 223L634 224L633 223M388 224L389 225L388 224M435 224L436 225L435 224M522 224L523 225L522 224M542 224L543 225L542 224M569.333 224.667L569.667 225.333L569.333 224.667M93 225L94 226L93 225M128 225L129 226L128 225M308 225L308 228L309 228L308 225M342 225L342 229L343 229L342 225M601 225L602 226L601 225M674 225L675 226L674 225M416 226L417 227L416 226M541 226L542 227L541 226M631 226L632 227L631 226M700 226L701 227L700 226M600 227L601 228L600 227M673 227L674 228L673 227M127 228L128 229L127 228M389 228L390 229L389 228M417 228L418 229L417 228M540 228L541 229L540 228M568 228L569 229L568 228M92.3333 230.667L92.6667 231.333L92.3333 230.667M628 230L629 231L628 230M390 231L391 232L390 231M567 231L568 232L567 231M420 232L421 233L420 232M537 232L538 233L537 232M126 233L127 234L126 233M421 233L422 234L421 233M536 233L537 234L536 233M598 233L599 234L598 233M626 233L627 234L626 233M422 234L423 235L422 234M566 234L567 235L566 234M423 235L424 236L423 235M534 235L535 236L534 235M625 235L626 236L625 235M424 236L425 237L424 236M533 236L534 237L533 236M565 236L566 237L565 236M597.333 237.667L597.667 238.333L597.333 237.667M564 238L565 239L564 238M624.333 238.667L624.667 239.333L624.333 238.667M91 239L91 243L92 243L91 239M125 239L125 243L126 243L125 239M429 239L430 240L429 239M528 239L529 240L528 239M526 240L527 241L526 240M154 241L155 242L154 241z"/>
<path style="fill:#ff6d5f; stroke:none;" d="M155.667 241.333L156.333 241.667L155.667 241.333z"/>
<path style="fill:#ff2604; stroke:none;" d="M157.001 241.483C140.322 245.15 156.973 274.627 162.68 282C178.749 302.759 205.392 312.235 231 306.789C252.231 302.275 270.262 287.123 278.396 267C280.915 260.767 286.986 246.921 278.891 242.573C272.539 239.16 256.367 239.304 251.51 245.144C247.473 249.999 246.857 256.946 242.671 261.999C235.13 271.103 224.78 275.777 213 274.91C201.739 274.081 192.067 266.455 186.475 257C184.06 252.916 183.63 246.741 179.772 243.728C174.558 239.655 163.142 240.133 157.001 241.483z"/>
<path style="fill:#ff6d5f; stroke:none;" d="M174 241L174 242L177 242L174 241z"/>
<path style="fill:#ffa9a3; stroke:none;" d="M177 241L178 242L177 241M255 241L256 242L255 241z"/>
<path style="fill:#ff6d5f; stroke:none;" d="M256.667 241.333L257.333 241.667L256.667 241.333M276.667 241.333L277.333 241.667L276.667 241.333z"/>
<path style="fill:#ffa9a3; stroke:none;" d="M278 241L279 242L278 241M395 241L396 242L395 241M435 241L436 242L435 241M522 241L523 242L522 241M562 241L563 242L562 241z"/>
<path style="fill:#ff6d5f; stroke:none;" d="M152 242L153 243L152 242M178 242L179 243L178 242z"/>
<path style="fill:#ffa9a3; stroke:none;" d="M179 242L180 243L179 242z"/>
<path style="fill:#ff6d5f; stroke:none;" d="M253 242L254 243L253 242M279 242L280 243L279 242z"/>
<path style="fill:#ffa9a3; stroke:none;" d="M280 242L281 243L280 242M342 242L342 247L343 247L342 242z"/>
<path style="fill:#ff6d5f; stroke:none;" d="M151 243L152 244L151 243z"/>
<path style="fill:#ffa9a3; stroke:none;" d="M180 243L181 244L180 243z"/>
<path style="fill:#ff6d5f; stroke:none;" d="M252 243L253 244L252 243z"/>
<path style="fill:#ffa9a3; stroke:none;" d="M281 243L282 244L281 243M308 243L308 246L309 246L308 243M624 243L625 244L624 243M150 244L151 245L150 244M181 244L182 245L181 244z"/>
<path style="fill:#ff6d5f; stroke:none;" d="M251 244L252 245L251 244z"/>
<path style="fill:#ffa9a3; stroke:none;" d="M397 244L398 245L397 244M560 244L561 245L560 244M250 245L251 246L250 245z"/>
<path style="fill:#ff6d5f; stroke:none;" d="M282 245L283 246L282 245z"/>
<path style="fill:#ffa9a3; stroke:none;" d="M149 246L150 247L149 246z"/>
<path style="fill:#ff6d5f; stroke:none;" d="M182 246L183 247L182 246z"/>
<path style="fill:#ffa9a3; stroke:none;" d="M625 246L626 247L625 246z"/>
<path style="fill:#ff6d5f; stroke:none;" d="M149 247L149 251L150 251L149 247z"/>
<path style="fill:#ffa9a3; stroke:none;" d="M249 247L250 248L249 247M283 247L283 251L284 251L283 247M597 247L598 248L597 247M183 248L184 249L183 248z"/>
<path style="fill:#ff6d5f; stroke:none;" d="M249 248L250 249L249 248z"/>
<path style="fill:#ffa9a3; stroke:none;" d="M626 248L627 249L626 248z"/>
<path style="fill:#ff6d5f; stroke:none;" d="M183.333 249.667L183.667 250.333L183.333 249.667z"/>
<path style="fill:#ffa9a3; stroke:none;" d="M248 250L249 251L248 250M149.333 251.667L149.667 252.333L149.333 251.667z"/>
<path style="fill:#ff6d5f; stroke:none;" d="M248 251L249 252L248 251z"/>
<path style="fill:#ffa9a3; stroke:none;" d="M629 251L630 252L629 251M184 252L185 253L184 252M307.333 252.667L307.667 253.333L307.333 252.667M598 252L599 253L598 252M91 253L91 257L92 257L91 253M125 253L125 256L126 256L125 253z"/>
<path style="fill:#ff6d5f; stroke:none;" d="M184 253L185 254L184 253z"/>
<path style="fill:#ffa9a3; stroke:none;" d="M247 253L248 254L247 253z"/>
<path style="fill:#ff6d5f; stroke:none;" d="M282 253L283 254L282 253z"/>
<path style="fill:#ffa9a3; stroke:none;" d="M633 253L634 254L633 253M185 254L186 255L185 254z"/>
<path style="fill:#ff6d5f; stroke:none;" d="M247 254L248 255L247 254z"/>
<path style="fill:#ffa9a3; stroke:none;" d="M282.333 254.667L282.667 255.333L282.333 254.667M341.333 254.667L341.667 255.333L341.333 254.667M407 254L408 255L407 254M550 254L551 255L550 254M756 254L757 255L756 254z"/>
<path style="fill:#ff6d5f; stroke:none;" d="M150 255L151 256L150 255M185 255L186 256L185 255z"/>
<path style="fill:#ffa9a3; stroke:none;" d="M246 255L247 256L246 255M599 255L600 256L599 255M758 255L759 256L758 255M150.333 256.667L150.667 257.333L150.333 256.667M186 256L187 257L186 256z"/>
<path style="fill:#ff6d5f; stroke:none;" d="M246 256L247 257L246 256z"/>
<path style="fill:#ffa9a3; stroke:none;" d="M410 256L411 257L410 256M759 256L760 257L759 256z"/>
<path style="fill:#ff6d5f; stroke:none;" d="M186 257L187 258L186 257z"/>
<path style="fill:#ffa9a3; stroke:none;" d="M245 257L246 258L245 257z"/>
<path style="fill:#ff6d5f; stroke:none;" d="M281.333 257.667L281.667 258.333L281.333 257.667z"/>
<path style="fill:#ffa9a3; stroke:none;" d="M306.333 257.667L306.667 258.333L306.333 257.667M600 257L601 258L600 257M760 257L761 258L760 257M187 258L188 259L187 258z"/>
<path style="fill:#ff6d5f; stroke:none;" d="M245 258L246 259L245 258z"/>
<path style="fill:#ffa9a3; stroke:none;" d="M411 258L412 259L411 258M544 258L545 259L544 258z"/>
<path style="fill:#ff6d5f; stroke:none;" d="M151 259L152 260L151 259z"/>
<path style="fill:#ffa9a3; stroke:none;" d="M244 259L245 260L244 259M281 259L282 260L281 259M542 259L543 260L542 259M601 259L602 260L601 259M761 259L762 260L761 259M151 260L152 261L151 260z"/>
<path style="fill:#ff6d5f; stroke:none;" d="M188 260L189 261L188 260z"/>
<path style="fill:#ffa9a3; stroke:none;" d="M540 260L541 261L540 260M126.333 261.667L126.667 262.333L126.333 261.667M189 261L190 262L189 261z"/>
<path style="fill:#ff6d5f; stroke:none;" d="M243 261L244 262L243 261M280 261L281 262L280 261z"/>
<path style="fill:#ffa9a3; stroke:none;" d="M340 261L341 262L340 261z"/>
<path style="fill:#ff6d5f; stroke:none;" d="M152 262L153 263L152 262z"/>
<path style="fill:#ffa9a3; stroke:none;" d="M190 262L191 263L190 262z"/>
<path style="fill:#ff6d5f; stroke:none;" d="M242 262L243 263L242 262z"/>
<path style="fill:#ffa9a3; stroke:none;" d="M280 262L281 263L280 262M305 262L306 263L305 262M408 262L409 263L408 262M534 262L535 263L534 262M603 262L604 263L603 262M152 263L153 264L152 263M191 263L192 264L191 263M241 263L242 264L241 263M530.667 263.333L531.333 263.667L530.667 263.333M92 264L93 265L92 264z"/>
<path style="fill:#ff6d5f; stroke:none;" d="M191 264L192 265L191 264z"/>
<path style="fill:#ffa9a3; stroke:none;" d="M240 264L241 265L240 264z"/>
<path style="fill:#ff6d5f; stroke:none;" d="M279 264L280 265L279 264z"/>
<path style="fill:#ffa9a3; stroke:none;" d="M521 264L521 265L526 265L521 264z"/>
<path style="fill:#ff6d5f; stroke:none;" d="M153 265L154 266L153 265M192 265L193 266L192 265z"/>
<path style="fill:#ffa9a3; stroke:none;" d="M239 265L240 266L239 265M279 265L280 266L279 265M406 265L407 266L406 265M127 266L128 267L127 266M153 266L154 267L153 266z"/>
<path style="fill:#ff6d5f; stroke:none;" d="M193 266L194 267L193 266z"/>
<path style="fill:#ffa9a3; stroke:none;" d="M194 266L195 267L194 266M238 266L239 267L238 266z"/>
<path style="fill:#ff6d5f; stroke:none;" d="M278 266L279 267L278 266z"/>
<path style="fill:#ffa9a3; stroke:none;" d="M304 266L305 267L304 266M339 266L340 267L339 266z"/>
<path style="fill:#ff6d5f; stroke:none;" d="M154 267L155 268L154 267z"/>
<path style="fill:#ffa9a3; stroke:none;" d="M195 267L196 268L195 267z"/>
<path style="fill:#ff6d5f; stroke:none;" d="M237 267L238 268L237 267z"/>
<path style="fill:#ffa9a3; stroke:none;" d="M278 267L279 268L278 267M436 267L437 268L436 267M154 268L155 269L154 268M196 268L197 269L196 268z"/>
<path style="fill:#ff6d5f; stroke:none;" d="M236 268L237 269L236 268z"/>
<path style="fill:#ffa9a3; stroke:none;" d="M404 268L405 269L404 268M609 268L610 269L609 268z"/>
<path style="fill:#ff6d5f; stroke:none;" d="M197 269L198 270L197 269z"/>
<path style="fill:#ffa9a3; stroke:none;" d="M198 269L199 270L198 269M234 269L235 270L234 269M277 269L278 270L277 269M303 269L304 270L303 269M93 270L94 271L93 270M128 270L129 271L128 270M155 270L156 271L155 270z"/>
<path style="fill:#ff6d5f; stroke:none;" d="M199 270L200 271L199 270z"/>
<path style="fill:#ffa9a3; stroke:none;" d="M232 270L233 271L232 270z"/>
<path style="fill:#ff6d5f; stroke:none;" d="M233 270L234 271L233 270z"/>
<path style="fill:#ffa9a3; stroke:none;" d="M338 270L339 271L338 270M434 270L435 271L434 270M612 270L613 271L612 270M201 271L202 272L201 271M230 271L231 272L230 271z"/>
<path style="fill:#ff6d5f; stroke:none;" d="M231 271L232 272L231 271M276 271L277 272L276 271z"/>
<path style="fill:#ffa9a3; stroke:none;" d="M156 272L157 273L156 272z"/>
<path style="fill:#ff6d5f; stroke:none;" d="M203 272L204 273L203 272z"/>
<path style="fill:#ffa9a3; stroke:none;" d="M204 272L205 273L204 272M228 272L229 273L228 272z"/>
<path style="fill:#ff6d5f; stroke:none;" d="M229 272L230 273L229 272z"/>
<path style="fill:#ffa9a3; stroke:none;" d="M302 272L303 273L302 272M401 272L402 273L401 272M615 272L616 273L615 272M129 273L130 274L129 273z"/>
<path style="fill:#ff6d5f; stroke:none;" d="M205 273L206 274L205 273z"/>
<path style="fill:#ffa9a3; stroke:none;" d="M206.667 273.333L207.333 273.667L206.667 273.333M225 273L226 274L225 273z"/>
<path style="fill:#ff6d5f; stroke:none;" d="M226 273L227 274L226 273z"/>
<path style="fill:#ffa9a3; stroke:none;" d="M275 273L276 274L275 273M618 273L619 274L618 273M94 274L95 275L94 274M157 274L158 275L157 274z"/>
<path style="fill:#ff6d5f; stroke:none;" d="M209.667 274.333L210.333 274.667L209.667 274.333z"/>
<path style="fill:#ffa9a3; stroke:none;" d="M211 274L211 275L214 275L211 274M219 274L219 275L222 275L219 274z"/>
<path style="fill:#ff6d5f; stroke:none;" d="M222.667 274.333L223.333 274.667L222.667 274.333z"/>
<path style="fill:#ffa9a3; stroke:none;" d="M337 274L338 275L337 274M431 274L432 275L431 274M621 274L622 275L621 274M759 274L760 275L759 274z"/>
<path style="fill:#ff6d5f; stroke:none;" d="M158 275L159 276L158 275z"/>
<path style="fill:#ffa9a3; stroke:none;" d="M274 275L275 276L274 275M399 275L400 276L399 275M624.667 275.333L625.333 275.667L624.667 275.333M130 276L131 277L130 276M158 276L159 277L158 276z"/>
<path style="fill:#ff6d5f; stroke:none;" d="M273 276L274 277L273 276z"/>
<path style="fill:#ffa9a3; stroke:none;" d="M631 276L631 277L673 277C662.012 272.389 642.957 276 631 276M702 276L702 277L756 277L738 276L702 276z"/>
<path style="fill:#ff6d5f; stroke:none;" d="M159 277L160 278L159 277z"/>
<path style="fill:#ffa9a3; stroke:none;" d="M273 277L274 278L273 277M300 277L301 278L300 277M336 277L337 278L336 277M429 277L430 278L429 277M95 278L96 279L95 278z"/>
<path style="fill:#ff6d5f; stroke:none;" d="M272 278L273 279L272 278z"/>
<path style="fill:#ffa9a3; stroke:none;" d="M397 278L398 279L397 278M160 279L161 280L160 279z"/>
<path style="fill:#ff6d5f; stroke:none;" d="M271 279L272 280L271 279z"/>
<path style="fill:#ffa9a3; stroke:none;" d="M299 279L300 280L299 279M428 279L428 280L533 280L501 279L428 279z"/>
<path style="fill:#ff6d5f; stroke:none;" d="M161 280L162 281L161 280z"/>
<path style="fill:#ffa9a3; stroke:none;" d="M271 280L272 281L271 280M396 280L397 281L396 280M541 280L542 281L541 280M132 281L133 282L132 281z"/>
<path style="fill:#ff6d5f; stroke:none;" d="M162 281L163 282L162 281z"/>
<path style="fill:#ffa9a3; stroke:none;" d="M270 281L271 282L270 281M545 281L546 282L545 281z"/>
<path style="fill:#ff6d5f; stroke:none;" d="M269 282L270 283L269 282z"/>
<path style="fill:#ffa9a3; stroke:none;" d="M548 282L549 283L548 282M133 283L134 284L133 283M163 283L164 284L163 283z"/>
<path style="fill:#ff6d5f; stroke:none;" d="M268 283L269 284L268 283z"/>
<path style="fill:#ffa9a3; stroke:none;" d="M550 283L551 284L550 283M164 284L165 285L164 284M395.333 284.667L395.667 285.333L395.333 284.667M552 284L553 285L552 284M134 285L135 286L134 285z"/>
<path style="fill:#ff6d5f; stroke:none;" d="M165 285L166 286L165 285z"/>
<path style="fill:#ffa9a3; stroke:none;" d="M267 285L268 286L267 285M296 285L297 286L296 285z"/>
<path style="fill:#ff6d5f; stroke:none;" d="M166 286L167 287L166 286z"/>
<path style="fill:#ffa9a3; stroke:none;" d="M266 286L267 287L266 286M333 286L334 287L333 286M555 286L556 287L555 286z"/>
<path style="fill:#ff6d5f; stroke:none;" d="M167 287L168 288L167 287z"/>
<path style="fill:#ffa9a3; stroke:none;" d="M265 287L266 288L265 287M295 287L296 288L295 287M395.333 287.667L395.667 288.333L395.333 287.667M556 287L557 288L556 287z"/>
<path style="fill:#ff6d5f; stroke:none;" d="M168 288L169 289L168 288z"/>
<path style="fill:#ffa9a3; stroke:none;" d="M264 288L265 289L264 288M557 288L558 289L557 288z"/>
<path style="fill:#ff6d5f; stroke:none;" d="M169 289L170 290L169 289z"/>
<path style="fill:#ffa9a3; stroke:none;" d="M263 289L264 290L263 289M332 289L333 290L332 289M558 289L559 290L558 289M99 290L100 291L99 290M137 290L138 291L137 290z"/>
<path style="fill:#ff6d5f; stroke:none;" d="M170 290L171 291L170 290z"/>
<path style="fill:#ffa9a3; stroke:none;" d="M262 290L263 291L262 290M293 290L294 291L293 290M559 290L560 291L559 290z"/>
<path style="fill:#ff6d5f; stroke:none;" d="M171 291L172 292L171 291z"/>
<path style="fill:#ffa9a3; stroke:none;" d="M261 291L262 292L261 291M331 291L332 292L331 291z"/>
<path style="fill:#ff6d5f; stroke:none;" d="M172 292L173 293L172 292z"/>
<path style="fill:#ffa9a3; stroke:none;" d="M260 292L261 293L260 292M292 292L293 293L292 292M139 293L140 294L139 293M173 293L174 294L173 293z"/>
<path style="fill:#ff6d5f; stroke:none;" d="M258 293L259 294L258 293z"/>
<path style="fill:#ffa9a3; stroke:none;" d="M259 293L260 294L259 293M561 293L562 294L561 293M174 294L175 295L174 294z"/>
<path style="fill:#ff6d5f; stroke:none;" d="M257 294L258 295L257 294z"/>
<path style="fill:#ffa9a3; stroke:none;" d="M397 294L398 295L397 294z"/>
<path style="fill:#ff6d5f; stroke:none;" d="M176 295L177 296L176 295z"/>
<path style="fill:#ffa9a3; stroke:none;" d="M256 295L257 296L256 295M593.667 295.333L594.333 295.667L593.667 295.333M755.667 295.333L756.333 295.667L755.667 295.333M141 296L142 297L141 296M177 296L178 297L177 296z"/>
<path style="fill:#ff6d5f; stroke:none;" d="M254 296L255 297L254 296z"/>
<path style="fill:#ffa9a3; stroke:none;" d="M255 296L256 297L255 296M289 296L290 297L289 296M758 296L759 297L758 296M102 297L103 298L102 297M142 297L143 298L142 297M178 297L179 298L178 297z"/>
<path style="fill:#ff6d5f; stroke:none;" d="M179 297L180 298L179 297M253 297L254 298L253 297z"/>
<path style="fill:#ffa9a3; stroke:none;" d="M590 297L591 298L590 297M759 297L760 298L759 297M180 298L181 299L180 298z"/>
<path style="fill:#ff6d5f; stroke:none;" d="M251 298L252 299L251 298z"/>
<path style="fill:#ffa9a3; stroke:none;" d="M252 298L253 299L252 298M760 298L761 299L760 298M103 299L104 300L103 299M181 299L182 300L181 299z"/>
<path style="fill:#ff6d5f; stroke:none;" d="M182 299L183 300L182 299z"/>
<path style="fill:#ffa9a3; stroke:none;" d="M250 299L251 300L250 299M287 299L288 300L287 299M402 299L403 300L402 299M564 299L565 300L564 299M183 300L184 301L183 300z"/>
<path style="fill:#ff6d5f; stroke:none;" d="M184 300L185 301L184 300M248 300L249 301L248 300z"/>
<path style="fill:#ffa9a3; stroke:none;" d="M286 300L287 301L286 300M404 300L405 301L404 300M761 300L762 301L761 300M145 301L146 302L145 301M185 301L186 302L185 301z"/>
<path style="fill:#ff6d5f; stroke:none;" d="M186 301L187 302L186 301M246 301L247 302L246 301z"/>
<path style="fill:#ffa9a3; stroke:none;" d="M247 301L248 302L247 301M407 301L408 302L407 301M588 301L588 312L589 312L588 301M146 302L147 303L146 302M187 302L188 303L187 302z"/>
<path style="fill:#ff6d5f; stroke:none;" d="M188 302L189 303L188 302M244 302L245 303L244 302z"/>
<path style="fill:#ffa9a3; stroke:none;" d="M245 302L246 303L245 302M456 302L457 303L456 302M147 303L148 304L147 303M189 303L190 304L189 303z"/>
<path style="fill:#ff6d5f; stroke:none;" d="M190 303L191 304L190 303M241 303L242 304L241 303z"/>
<path style="fill:#ffa9a3; stroke:none;" d="M242 303L243 304L242 303M325 303L326 304L325 303M424 303L425 304L424 303M515 303L516 304L515 303M565 303L566 304L565 303M192 304L193 305L192 304z"/>
<path style="fill:#ff6d5f; stroke:none;" d="M193 304L194 305L193 304M239 304L240 305L239 304z"/>
<path style="fill:#ffa9a3; stroke:none;" d="M240 304L241 305L240 304M483 304L484 305L483 304M535 304L536 305L535 304M194 305L195 306L194 305z"/>
<path style="fill:#ff6d5f; stroke:none;" d="M195.667 305.333L196.333 305.667L195.667 305.333M236 305L237 306L236 305z"/>
<path style="fill:#ffa9a3; stroke:none;" d="M237 305L238 306L237 305M324 305L325 306L324 305M454 305L455 306L454 305M536 305L537 306L536 305M107 306L108 307L107 306M197.667 306.333L198.333 306.667L197.667 306.333z"/>
<path style="fill:#ff6d5f; stroke:none;" d="M199 306L200 307L199 306M232.667 306.333L233.333 306.667L232.667 306.333z"/>
<path style="fill:#ffa9a3; stroke:none;" d="M234 306L235 307L234 306M513 306L514 307L513 306M201.667 307.333L202.333 307.667L201.667 307.333z"/>
<path style="fill:#ff6d5f; stroke:none;" d="M203.667 307.333L204.333 307.667L203.667 307.333M227.667 307.333L228.333 307.667L227.667 307.333z"/>
<path style="fill:#ffa9a3; stroke:none;" d="M229.667 307.333L230.333 307.667L229.667 307.333M207 308L207 309L210 309L207 308z"/>
<path style="fill:#ff6d5f; stroke:none;" d="M210 308L210 309L222 309L210 308z"/>
<path style="fill:#ffa9a3; stroke:none;" d="M222 308L222 309L226 309L222 308M322 308L323 309L322 308M452 308L453 309L452 308M480 308L481 309L480 308M153 309L154 310L153 309M538 309L539 310L538 309M566 309L566 314L567 314L566 309M154 310L155 311L154 310M419 310L420 311L419 310M510 310L511 311L510 310M110 311L111 312L110 311M155 311L156 312L155 311M478 311L479 312L478 311M274 312L275 313L274 312M449 312L450 313L449 312M273 313L274 314L273 313M319 313L320 314L319 313M417 313L418 314L417 313M508 313L509 314L508 313M159 314L160 315L159 314M476 314L477 315L476 314M113 315L114 316L113 315M447 315L448 316L447 315M759 315L760 316L759 315M269 316L270 317L269 316M415 316L416 317L415 316M506 316L507 317L506 316M538 316L539 317L538 316M163 317L164 318L163 317M316 317L317 318L316 317M595 317L595 318L673 318L649 317L595 317M702 317L702 318L756 318L738 317L702 317M115 318L116 319L115 318M266 318L267 319L266 318M445 318L446 319L445 318M473 318L474 319L473 318M116 319L117 320L116 319M166 319L167 320L166 319M504 319L505 320L504 319M565 319L566 320L565 319M168 320L169 321L168 320M263 320L264 321L263 320M412 320L413 321L412 320M313 321L314 322L313 321M471 321L472 322L471 321M442 322L443 323L442 322M258 323L259 324L258 323M410 323L411 324L410 323M501 323L502 324L501 323M564 323L565 324L564 323M120 324L121 325L120 324M256 324L257 325L256 324M469 324L470 325L469 324M534 324L535 325L534 324M121 325L122 326L121 325M178 325L179 326L178 325M440 325L441 326L440 325M180 326L181 327L180 326M251 326L252 327L251 326M408 326L409 327L408 326M499 326L500 327L499 326M249 327L250 328L249 327M308 327L309 328L308 327M532 327L533 328L532 327M185 328L186 329L185 328M246 328L247 329L246 328M307 328L308 329L307 328M438 328L439 329L438 328M466 328L467 329L466 328M189 329L190 330L189 329M243 329L244 330L243 329M306 329L307 330L306 329M497 329L498 330L497 329M192.667 330.333L193.333 330.667L192.667 330.333M239 330L240 331L239 330M305 330L306 331L305 330M405 330L406 331L405 330M530 330L531 331L530 330M196.667 331.333L197.333 331.667L196.667 331.333M234.667 331.333L235.333 331.667L234.667 331.333M304 331L305 332L304 331M464 331L465 332L464 331M529 331L530 332L529 331M202.667 332.333L203.333 332.667L202.667 332.333M228.667 332.333L229.333 332.667L228.667 332.333M303 332L304 333L303 332M435 332L436 333L435 332M215.667 333.333L216.333 333.667L215.667 333.333M302 333L303 334L302 333M403 333L404 334L403 333M494 333L495 334L494 333M559 333L560 334L559 333M130 334L131 335L130 334M301 334L302 335L301 334M462 334L463 335L462 334M131 335L132 336L131 335M300 335L301 336L300 335M433 335L434 336L433 335M526 335L527 336L526 335M132 336L133 337L132 336M299 336L300 337L299 336M401 336L402 337L401 336M492 336L493 337L492 336M525 336L526 337L525 336M557 336L558 337L557 336M460 337L461 338L460 337M431 338L432 339L431 338M399 339L400 340L399 339M490 339L491 340L490 339M137 340L138 341L137 340M294 340L295 341L294 340M554 340L555 341L554 340M458.333 341.667L458.667 342.333L458.333 341.667M673 341L674 342L673 341M552 342L553 343L552 342M700 342L701 343L700 342M141 343L142 344L141 343M290 343L291 344L290 343M551 343L552 344L551 343M399 344L400 345L399 344M485 344L486 345L485 344M699 344L700 345L699 344M424 345L425 346L424 345M548 345L549 346L548 345M698 345L699 346L698 345M145 346L146 347L145 346M286 346L287 347L286 346M401 346L402 347L401 346M421 346L422 347L421 346M481 346L482 347L481 346M525 346L526 347L525 346M546 346L547 347L546 346M677 346L678 347L677 346M147 347L148 348L147 347M283 348L284 349L283 348M150 349L151 350L150 349M281 349L282 350L281 349M152 350L153 351L152 350M276 352L277 353L276 352M274 353L275 354L274 353M272 354L273 355L272 354M270 355L271 356L270 355M164 356L165 357L164 356M268 356L269 357L268 356M166 357L167 358L166 357M263 358L264 359L263 358M171 359L172 360L171 359M174 360L175 361L174 360M177 361L178 362L177 361M255 361L256 362L255 361M180 362L181 363L180 362M184 363L185 364L184 363M248 363L249 364L248 363M188 364L189 365L188 364M243 364L244 365L243 364M193.667 365.333L194.333 365.667L193.667 365.333M238 365L239 366L238 365M200.667 366.333L201.333 366.667L200.667 366.333M231.667 366.333L232.333 366.667L231.667 366.333M214 367L214 368L219 368L214 367z"/>
</svg>
